<?xml version="1.0" encoding="UTF-8" standalone="no"?>
<!-- Created with Inkscape (http://www.inkscape.org/) -->

<svg
   width="130.86446mm"
   height="216.98341mm"
   viewBox="0 0 130.86446 216.98341"
   version="1.1"
   id="svg1"
   sodipodi:docname="p1.svg"
   inkscape:version="1.4.2 (f4327f4, 2025-05-13)"
   xmlns:inkscape="http://www.inkscape.org/namespaces/inkscape"
   xmlns:sodipodi="http://sodipodi.sourceforge.net/DTD/sodipodi-0.dtd"
   xmlns="http://www.w3.org/2000/svg"
   xmlns:svg="http://www.w3.org/2000/svg">
  <sodipodi:namedview
     id="namedview1"
     pagecolor="#ffffff"
     bordercolor="#000000"
     borderopacity="0.25"
     inkscape:showpageshadow="2"
     inkscape:pageopacity="0.0"
     inkscape:pagecheckerboard="0"
     inkscape:deskcolor="#d1d1d1"
     inkscape:document-units="mm"
     inkscape:zoom="0.71891835"
     inkscape:cx="276.10924"
     inkscape:cy="413.81612"
     inkscape:window-width="1920"
     inkscape:window-height="1009"
     inkscape:window-x="1072"
     inkscape:window-y="446"
     inkscape:window-maximized="1"
     inkscape:current-layer="layer1" />
  <defs
     id="defs1">
    <inkscape:path-effect
       effect="bspline"
       id="path-effect4"
       is_visible="true"
       lpeversion="1.3"
       weight="33.333333"
       steps="2"
       helper_size="0"
       apply_no_weight="true"
       apply_with_weight="true"
       only_selected="false"
       uniform="false" />
    <inkscape:path-effect
       effect="bspline"
       id="path-effect3"
       is_visible="true"
       lpeversion="1.3"
       weight="33.333333"
       steps="2"
       helper_size="0"
       apply_no_weight="true"
       apply_with_weight="true"
       only_selected="false"
       uniform="false" />
  </defs>
  <g
     inkscape:label="Layer 1"
     inkscape:groupmode="layer"
     id="layer1"
     style="fill:#fff301;fill-opacity:0"
     transform="translate(-32.095646,-39.088211)">
    <rect
       style="fill:#f5d042;fill-opacity:1;stroke:#000000;stroke-width:1.5;stroke-dasharray:none"
       id="rect1"
       width="129.54646"
       height="215.66542"
       x="32.754646"
       y="39.747211" />
  </g>
  <g
     inkscape:groupmode="layer"
     id="layer3"
     inkscape:label="Layer 2"
     transform="translate(-32.095646,-39.088211)">
    <circle
       style="fill:#fdf900;fill-opacity:1;stroke:#000000;stroke-width:0.75;stroke-dasharray:none"
       id="path1"
       cx="117.21748"
       cy="127.52231"
       r="24.473978" />
  </g>
  <g
     inkscape:groupmode="layer"
     id="layer2"
     inkscape:label="Layer 3"
     transform="translate(-32.095646,-39.088211)">
    <path
       style="fill:#b4e638;fill-opacity:1;stroke:#000000;stroke-width:0.75;stroke-dasharray:none"
       d="m 72.07249,71.888475 c 1.778811,-1.717472 2.760222,-1.472119 3.864312,-1.042751 1.10409,0.429368 2.330856,1.04275 3.066914,1.349442 0.736059,0.306691 0.981412,0.306691 1.533457,0.490706 0.552046,0.184015 1.410782,0.552045 2.330856,0.797399 0.920074,0.245353 1.901485,0.368029 2.576207,0.552044 0.674723,0.184015 1.042753,0.429368 1.901488,0.736059 0.858736,0.306691 2.208179,0.674721 3.066915,1.042752 0.858736,0.36803 1.226766,0.73606 1.533458,0.920075 0.306691,0.184015 0.552042,0.184015 0.613381,0.368029 0.06134,0.184013 -0.06134,0.552043 -0.306692,1.165426 -0.245353,0.613383 -0.613382,1.472119 -0.920073,1.962826 -0.306692,0.490707 -0.552045,0.613383 -0.674722,0.73606 -0.122677,0.122677 -0.122677,0.245353 -0.490707,0.674722 -0.36803,0.429368 -1.104088,1.165426 -1.840148,2.024163 -0.73606,0.858737 -1.472118,1.840148 -2.085501,2.82156 -0.613382,0.981413 -1.104089,1.962827 -1.41078,2.760224 -0.306691,0.797397 -0.429368,1.41078 -0.552045,1.717472 -0.122676,0.306692 -0.245353,0.306692 -0.306692,0.429369 -0.06134,0.122676 -0.06134,0.368029 -0.184015,0.552044 -0.122677,0.184015 -0.368031,0.306691 -0.552045,0.67472 -0.184015,0.36803 -0.306691,0.981413 -0.429368,1.288105 -0.122677,0.306692 -0.245354,0.306692 -0.490706,0.920074 -0.245353,0.613382 -0.613383,1.840149 -0.920074,2.637546 -0.306691,0.797398 -0.552045,1.165428 -0.674721,1.656135 -0.122677,0.490707 -0.122677,1.104084 -0.306691,1.840144 -0.184013,0.73606 -0.552044,1.5948 -0.797397,2.82157 -0.245353,1.22676 -0.368031,2.82156 -0.552046,3.86431 -0.184016,1.04275 -0.42937,1.53346 -0.552046,2.33085 -0.122675,0.7974 -0.122675,1.90149 -0.06134,2.45354 0.06134,0.55204 0.184015,0.55204 0.306692,0.92007 0.122677,0.36803 0.245353,1.10409 0.490706,1.5948 0.245352,0.4907 0.613378,0.73605 0.858734,1.04275 0.245355,0.30669 0.368031,0.67472 0.858738,0.98141 0.490707,0.30669 1.349441,0.55204 1.840149,0.79739 0.490708,0.24536 0.613384,0.49071 1.165428,0.7974 0.552045,0.30669 1.533456,0.67472 2.269516,0.85873 0.73606,0.18402 1.226764,0.18402 1.472117,0.24536 0.245354,0.0613 0.245354,0.18402 0.490707,0.24536 0.245354,0.0613 0.736061,0.0613 1.104092,0.18401 0.368032,0.12268 0.613382,0.36803 1.349442,0.61338 0.736059,0.24535 1.962824,0.49071 2.698884,0.67472 0.73606,0.18402 0.981416,0.30669 1.104091,0.42937 0.122675,0.12268 0.122675,0.24536 0.24535,0.3067 0.122676,0.0613 0.368029,0.0613 1.410781,0.30668 1.042753,0.24536 2.882899,0.73606 3.864312,1.10409 0.981409,0.36803 1.104089,0.61339 1.288109,0.73606 0.18401,0.12268 0.42936,0.12268 0.79739,0.42937 0.36803,0.30669 0.85874,0.92008 1.16543,1.22677 0.30669,0.30669 0.42937,0.30669 0.49071,0.42937 0.0613,0.12267 0.0613,0.36803 0.30669,0.98141 0.24535,0.61338 0.73605,1.59479 0.98141,2.57621 0.24535,0.98141 0.24535,1.96282 0.18401,2.51486 -0.0613,0.55205 -0.18401,0.67473 -0.30669,0.85874 -0.12267,0.18402 -0.24535,0.42937 -0.30668,0.67473 -0.0613,0.24535 -0.0613,0.4907 -0.3067,0.85873 -0.24535,0.36803 -0.73606,0.85874 -0.98141,1.2881 -0.24535,0.42937 -0.24535,0.7974 -0.55204,1.41079 -0.3067,0.61338 -0.92008,1.47211 -1.47212,2.5762 -0.55205,1.10409 -1.04276,2.45354 -1.288108,3.37361 -0.245353,0.92007 -0.245353,1.41078 -0.368031,1.77881 -0.122679,0.36803 -0.36803,0.61338 -0.552045,1.16542 -0.184014,0.55205 -0.306691,1.41079 -0.429368,1.84015 -0.122676,0.42937 -0.245352,0.42937 -0.368029,1.28811 -0.122676,0.85873 -0.245354,2.57621 -0.36803,3.98699 -0.122677,1.41078 -0.245353,2.51487 0.122677,3.92565 0.36803,1.41078 1.226767,3.12825 2.146844,4.84572 0.92007,1.71747 1.90149,3.43495 2.51487,4.35502 0.61338,0.92008 0.85873,1.04275 0.98141,1.16543 0.12268,0.12268 0.12268,0.24535 0.85874,0.0613 0.73605,-0.18401 2.20817,-0.67472 3.00557,-0.98142 0.7974,-0.30669 0.92007,-0.42936 1.22677,-0.4907 0.30669,-0.0613 0.7974,-0.0613 1.10409,-0.12268 0.30669,-0.0613 0.42936,-0.18401 0.61338,-0.30669 0.18401,-0.12268 0.42937,-0.24535 0.73606,-0.30669 0.30669,-0.0613 0.67472,-0.0613 1.2881,-0.30669 0.61338,-0.24535 1.47212,-0.73606 2.26952,-1.10409 0.7974,-0.36803 1.53346,-0.61339 1.90149,-0.7974 0.36803,-0.18402 0.36803,-0.30669 0.55204,-0.36803 0.18402,-0.0613 0.55204,-0.0613 1.41078,-0.30669 0.85874,-0.24536 2.20818,-0.73606 3.18959,-1.04275 0.98141,-0.3067 1.5948,-0.42937 2.26952,-0.49071 0.67472,-0.0613 1.41078,-0.0613 2.33085,-0.0613 0.92008,0 2.02417,0 2.57621,0.0613 0.55205,0.0613 0.55205,0.18402 0.61338,0.24536 0.0613,0.0613 0.18402,0.0613 0.3067,0.18401 0.12268,0.12268 0.24535,0.36803 0.55204,0.67472 0.30669,0.30669 0.7974,0.67472 1.04276,0.98141 0.24535,0.30669 0.24535,0.55205 0.30668,0.67473 0.0613,0.12267 0.18402,0.12267 0.24536,0.24535 0.0613,0.12268 0.0613,0.36803 0.12267,0.49071 0.0613,0.12267 0.18402,0.12267 0.24536,0.79739 0.0613,0.67472 0.0613,2.02417 -0.36803,3.1896 -0.42937,1.16542 -1.2881,2.14684 -1.84015,2.88289 -0.55204,0.73606 -0.7974,1.22677 -1.04275,1.53346 -0.24536,0.30669 -0.49071,0.42937 -0.73606,0.73606 -0.24536,0.30669 -0.49071,0.7974 -0.67473,1.04275 -0.18401,0.24535 -0.30668,0.24535 -0.67471,0.61338 -0.36803,0.36803 -0.98142,1.10409 -1.53346,1.90149 -0.55205,0.7974 -1.04275,1.65613 -1.41078,2.14684 -0.36803,0.49071 -0.61339,0.61338 -0.73606,1.22677 -0.12268,0.61338 -0.12268,1.71747 -0.18402,2.33085 -0.0613,0.61339 -0.18401,0.73606 -0.24535,2.02417 -0.0613,1.2881 -0.0613,3.74163 0.0613,5.39776 0.12267,1.65614 0.36803,2.51488 0.4907,3.06692 0.12268,0.55204 0.12268,0.7974 0.18402,0.92008 0.0613,0.12267 0.18401,0.12267 0.24535,0.73605 0.0613,0.61338 0.0613,1.84015 0.12268,2.57621 0.0613,0.73606 0.18401,0.98141 -0.18402,3.06692 -0.36803,2.0855 -1.22676,6.01115 -2.8829,8.52602 -1.65613,2.51487 -4.10966,3.61896 -5.82713,4.41636 -1.71748,0.7974 -2.69889,1.2881 -3.37361,1.53346 -0.67472,0.24535 -1.04275,0.24535 -2.33085,0.79739 -1.28811,0.55205 -3.49629,1.65614 -4.72305,2.33086 -1.22677,0.67472 -1.47212,0.92007 -1.71748,1.04275 -0.24535,0.12267 -0.4907,0.12267 -0.98141,0.36802 -0.4907,0.24536 -1.22676,0.73607 -2.085498,1.16543 -0.858736,0.42937 -1.84015,0.7974 -3.005578,1.41078 -1.165428,0.61339 -2.514867,1.47212 -3.434941,2.20818 -0.920075,0.73606 -1.410783,1.34945 -2.453534,2.14684 -1.042751,0.7974 -2.637546,1.77881 -4.355018,3.18959 -1.717472,1.41078 -3.557621,3.25093 -6.195168,4.78439 -2.637547,1.53346 -6.072488,2.76022 -8.157991,3.37361 -2.085503,0.61338 -2.821563,0.61338 -3.189592,0.42937 -0.368029,-0.18402 -0.368029,-0.55205 -0.429368,-0.73606 -0.06134,-0.18402 -0.184014,-0.18402 -0.306691,-0.55205 -0.122677,-0.36803 -0.245353,-1.10409 -0.490707,-1.90149 -0.245354,-0.7974 -0.613381,-1.65613 -0.981411,-2.26952 -0.36803,-0.61338 -0.73606,-0.98141 -0.920075,-1.59479 -0.184015,-0.61338 -0.184015,-1.47212 -0.245353,-3.00558 -0.06134,-1.53345 -0.184015,-3.74163 -0.245354,-5.82713 -0.06134,-2.0855 -0.06134,-4.04833 -1.472119,-5.33644 -1.410781,-1.2881 -4.232343,-1.90148 -5.643123,-2.45353 -1.410781,-0.55204 -1.410781,-1.04275 -1.288104,-1.65613 0.122676,-0.61338 0.36803,-1.34944 0.552045,-2.26952 0.184015,-0.92007 0.306691,-2.02416 0.736059,-3.80297 0.429368,-1.77881 1.165428,-4.23234 1.656134,-6.19516 0.490706,-1.96283 0.73606,-3.43495 1.042751,-4.72306 0.306691,-1.2881 0.674721,-2.39219 0.858735,-3.80297 0.184015,-1.41078 0.184015,-3.12825 -0.06134,-4.29368 -0.245354,-1.16543 -0.736057,-1.77881 -2.0855,-2.14684 -1.349443,-0.36803 -3.557621,-0.49071 -4.723048,-0.42937 -1.165426,0.0613 -1.288102,0.30669 -1.77881,0.61339 -0.490708,0.30669 -1.349445,0.67472 -2.20818,1.16543 -0.858736,0.4907 -1.717472,1.10408 -2.330855,1.41077 -0.613383,0.30669 -0.981413,0.30669 -1.349444,0.42937 -0.368032,0.12268 -0.736058,0.36803 -1.226764,0.55204 -0.490707,0.18402 -1.104091,0.30669 -1.778811,0.36803 -0.67472,0.0613 -1.41078,0.0613 -2.146839,0.0613 -0.736059,0 -1.472119,0 -1.840149,-0.4907 -0.36803,-0.49071 -0.36803,-1.47212 -0.306691,-2.69889 0.06134,-1.22677 0.184014,-2.69888 0.245353,-5.88847 0.06134,-3.18959 0.06134,-8.09666 0,-11.40893 -0.06134,-3.31226 -0.184015,-5.02973 -0.245353,-6.93122 -0.06134,-1.90149 -0.06134,-3.98699 -0.06134,-7.23792 0,-3.25093 0,-7.66729 0,-11.96097 0,-4.29368 0,-8.46468 0.245353,-11.47026 0.245354,-3.00557 0.73606,-4.84572 1.165427,-6.07249 0.429368,-1.22676 0.7974,-1.84015 0.981414,-2.26951 0.184014,-0.42937 0.184014,-0.67473 0.429367,-1.28811 0.245352,-0.61338 0.736058,-1.59479 1.226766,-2.82156 0.490708,-1.22677 0.981412,-2.69888 1.349444,-3.55762 0.368032,-0.85874 0.613384,-1.10409 0.73606,-1.34944 0.122676,-0.24535 0.122676,-0.49071 0.306692,-0.92008 0.184016,-0.42937 0.552043,-1.04275 0.797395,-1.71747 0.245353,-0.67472 0.368029,-1.41078 0.613383,-1.96282 0.245353,-0.55205 0.613384,-0.92008 0.981413,-1.47212 0.36803,-0.55205 0.736059,-1.28811 1.165428,-2.20818 0.429368,-0.92008 0.920073,-2.02416 1.226765,-2.82156 0.306693,-0.7974 0.429369,-1.28811 0.73606,-1.96283 0.306691,-0.67472 0.7974,-1.53346 1.165429,-2.330855 0.368029,-0.797396 0.613382,-1.533456 1.042749,-2.208176 0.429368,-0.67472 1.042751,-1.288105 1.472119,-1.901487 0.429368,-0.613382 0.674722,-1.226766 1.042751,-1.840149 0.36803,-0.613383 0.858735,-1.226765 1.165427,-1.717471 0.306692,-0.490707 0.429368,-0.858738 0.552045,-1.042753 0.122677,-0.184015 0.245354,-0.184015 0.429368,-0.490707 0.184015,-0.306691 0.429367,-0.920073 0.858736,-1.656133 0.429368,-0.73606 1.042751,-1.594794 1.533458,-2.146839 0.490707,-0.552046 0.858734,-0.797398 1.042749,-1.042752 0.184015,-0.245353 0.184015,-0.490707 0.490707,-1.104089 0.306692,-0.613382 0.920076,-1.594795 1.349443,-2.208177 0.429368,-0.613382 0.674721,-0.858736 2.085502,-2.821562 1.410781,-1.962827 3.986988,-5.643123 5.765799,-7.360595 z"
       id="path4"
       inkscape:path-effect="#path-effect4"
       inkscape:original-d="m 72.869887,69.925649 c 0.981414,0.245353 1.962825,0.490707 2.944238,0.73606 1.226767,0.613384 2.453532,1.226767 3.680299,1.840148 0.245351,0 0.490704,0 0.736058,0 0.858737,0.36803 1.717473,0.73606 2.576208,1.10409 0.981413,0.122677 1.962824,0.245354 2.944238,0.36803 0.36803,0.245354 0.73606,0.490707 1.10409,0.736058 1.349442,0.36803 2.698885,0.73606 4.048326,1.10409 0.368031,0.368031 0.736061,0.736061 1.104091,1.104091 0.245353,0 0.490704,0 0.736057,0 -0.122676,0.368027 -0.245353,0.736057 -0.36803,1.104087 -0.368027,0.858737 -0.736057,1.717472 -1.104087,2.576209 -0.245354,0.122676 -0.490707,0.245353 -0.736061,0.36803 0,0.122677 0,0.245353 0,0.36803 -0.73606,0.73606 -1.472117,1.472118 -2.208178,2.208178 -0.73606,0.981414 -1.472118,1.962825 -2.208178,2.944238 -0.490707,0.981411 -0.981413,1.962825 -1.472118,2.944239 -0.122676,0.613381 -0.245353,1.226764 -0.36803,1.840148 -0.122676,0 -0.245353,0 -0.36803,0 0,0.245353 0,0.490706 0,0.73606 -0.245353,0.122677 -0.490707,0.245353 -0.73606,0.368027 -0.122677,0.613384 -0.245354,1.226767 -0.36803,1.840151 -0.122677,0 -0.245354,0 -0.36803,0 -0.368028,1.226764 -0.736058,2.453531 -1.104088,3.680296 -0.245353,0.36803 -0.490707,0.73606 -0.73606,1.10409 0,0.613384 0,1.226761 0,1.840151 -0.36803,0.85873 -0.736061,1.71747 -1.104088,2.57621 -0.122677,1.59479 -0.245353,3.18959 -0.36803,4.78438 -0.245354,0.49071 -0.490707,0.98142 -0.73606,1.47212 0,1.10409 0,2.20818 0,3.31227 0.122676,0 0.245353,0 0.36803,0 0.122676,0.73606 0.245353,1.47212 0.36803,2.20818 0.36803,0.24535 0.736057,0.4907 1.104088,0.73606 0.122676,0.36803 0.245353,0.73606 0.36803,1.10409 0.858737,0.24535 1.717471,0.4907 2.576208,0.73605 0.122677,0.24536 0.245353,0.49071 0.36803,0.73606 0.981414,0.36803 1.962825,0.73606 2.944238,1.10409 0.490707,0 0.981411,0 1.472118,0 0,0.12268 0,0.24536 0,0.36803 0.490707,0 0.981414,0 1.472121,0 0.245353,0.24536 0.490704,0.49071 0.736057,0.73606 1.226767,0.24536 2.453532,0.49071 3.680299,0.73606 0.245353,0.12268 0.490707,0.24536 0.73606,0.36803 0,0.12268 0,0.24536 0,0.36803 0.245351,0 0.490704,0 0.736058,0 1.84015,0.49071 3.680298,0.98141 5.520449,1.47212 0.12267,0.24535 0.24535,0.49071 0.36803,0.73606 0.24535,0 0.4907,0 0.73606,0 0.4907,0.61338 0.98141,1.22677 1.47212,1.84015 0.12267,0 0.24535,0 0.36803,0 0,0.24535 0,0.49071 0,0.73606 0.4907,0.98141 0.98141,1.96282 1.47211,2.94424 0,0.98141 0,1.96282 0,2.94423 -0.12267,0.12268 -0.24535,0.24536 -0.36802,0.36803 -0.12268,0.24536 -0.24536,0.49071 -0.36803,0.73606 0,0.24536 0,0.49071 0,0.73606 -0.49071,0.49071 -0.98142,0.98141 -1.47212,1.47212 0,0.36803 0,0.73606 0,1.10409 -0.61339,0.85874 -1.22677,1.71747 -1.84015,2.57621 -0.49071,1.34944 -0.98142,2.69889 -1.472121,4.04833 0,0.4907 0,0.98141 0,1.47211 -0.245353,0.24536 -0.490706,0.49071 -0.73606,0.73606 -0.122677,0.85874 -0.245353,1.71748 -0.36803,2.57621 -0.122677,0 -0.245353,0 -0.36803,0 -0.122677,1.71747 -0.245353,3.43495 -0.36803,5.15242 -0.122677,1.10409 -0.245354,2.20818 -0.36803,3.31227 0.858737,1.71747 1.717474,3.43494 2.576211,5.15241 0.98141,1.71747 1.96282,3.43495 2.94424,5.15242 0.24535,0.12268 0.4907,0.24535 0.73606,0.36803 0,0.12268 0,0.24535 0,0.36803 1.47211,-0.49071 2.94423,-0.98141 4.41635,-1.47212 0.12268,-0.12268 0.24536,-0.24535 0.36803,-0.36803 0.49071,0 0.98142,0 1.47212,0 0.12268,-0.12268 0.24535,-0.24535 0.36803,-0.36803 0.24535,-0.12268 0.49071,-0.24535 0.73606,-0.36803 0.36803,0 0.73606,0 1.10409,0 0.85873,-0.4907 1.71747,-0.98141 2.57621,-1.47212 0.73606,-0.24535 1.47212,-0.49071 2.20818,-0.73606 0,-0.12268 0,-0.24535 0,-0.36803 0.36803,0 0.73605,0 1.10408,0 1.34945,-0.4907 2.69889,-0.98141 4.04833,-1.47212 0.61338,-0.12267 1.22677,-0.24535 1.84015,-0.36803 0.73606,0 1.47212,0 2.20818,0 1.10409,0 2.20818,0 3.31227,0 0,0.12268 0,0.24536 0,0.36803 0.12267,0 0.24535,0 0.36803,0 0.12267,0.24536 0.24535,0.49071 0.36803,0.73606 0.4907,0.36803 0.98141,0.73606 1.47212,1.10409 0,0.24535 0,0.49071 0,0.73606 0.12267,0 0.24535,0 0.36803,0 0,0.24536 0,0.49071 0,0.73606 0.12267,0 0.24535,0 0.36803,0 0,1.34944 0,2.69889 0,4.04833 -0.85874,0.98141 -1.71748,1.96282 -2.57621,2.94424 -0.24536,0.4907 -0.49071,0.98141 -0.73606,1.47211 -0.24536,0.12268 -0.49071,0.24536 -0.73606,0.36803 -0.24536,0.49071 -0.49071,0.98142 -0.73606,1.47212 -0.12268,0 -0.24535,0 -0.36803,0 -0.61338,0.73606 -1.22677,1.47212 -1.84015,2.20818 -0.49071,0.85874 -0.98141,1.71747 -1.47212,2.57621 -0.24535,0.12268 -0.49071,0.24535 -0.73606,0.36803 0,1.10409 0,2.20818 0,3.31227 -0.12268,0.12267 -0.24535,0.24535 -0.36803,0.36803 0,2.45353 0,4.90706 0,7.36059 0.24535,0.85874 0.49071,1.71748 0.73606,2.57621 0,0.24535 0,0.49071 0,0.73606 0.12268,0 0.24535,0 0.36803,0 0,1.22676 0,2.45353 0,3.6803 0.12268,0.24535 0.24535,0.4907 0.36803,0.73606 -0.85874,3.92565 -1.71747,7.8513 -2.57621,11.77695 -2.45353,1.10409 -4.90706,2.20818 -7.36059,3.31227 -0.98142,0.4907 -1.96283,0.98141 -2.94424,1.47212 -0.36803,0 -0.73606,0 -1.10409,0 -2.20818,1.10408 -4.41636,2.20817 -6.62453,3.31226 -0.24536,0.24535 -0.49071,0.49071 -0.73606,0.73606 -0.24536,0 -0.49071,0 -0.73606,0 -0.73606,0.49071 -1.47212,0.98142 -2.20818,1.47212 -0.981414,0.36803 -1.962828,0.73606 -2.944239,1.10409 -1.349444,0.85874 -2.698885,1.71747 -4.048328,2.57621 -0.490707,0.61338 -0.981411,1.22677 -1.472118,1.84015 -1.594797,0.98141 -3.189592,1.96282 -4.784387,2.94423 -1.84015,1.84015 -3.680298,3.6803 -5.520446,5.52045 -3.434945,1.22677 -6.869888,2.45353 -10.304833,3.6803 -0.73606,0 -1.47212,0 -2.208178,0 0,-0.36803 0,-0.73606 0,-1.10409 -0.122677,0 -0.245353,0 -0.36803,0 -0.122677,-0.73606 -0.245353,-1.47212 -0.36803,-2.20818 -0.36803,-0.85874 -0.73606,-1.71747 -1.104088,-2.57621 -0.36803,-0.36803 -0.73606,-0.73606 -1.10409,-1.10409 0,-0.85873 0,-1.71747 0,-2.57621 -0.122677,-2.20817 -0.245354,-4.41635 -0.36803,-6.62453 0,-1.96282 0,-3.92565 0,-5.88848 -2.821562,-0.61338 -5.643124,-1.22676 -8.464685,-1.84014 0,-0.49071 0,-0.98142 0,-1.47212 0.245353,-0.73606 0.490707,-1.47212 0.73606,-2.20818 0.122677,-1.10409 0.245353,-2.20818 0.36803,-3.31227 0.73606,-2.45353 1.472118,-4.90706 2.208178,-7.36059 0.245354,-1.47212 0.490707,-2.94424 0.73606,-4.41636 0.368031,-1.10409 0.736061,-2.20818 1.104088,-3.31227 0,-1.71747 0,-3.43494 0,-5.15241 -0.490704,-0.61339 -0.981411,-1.22677 -1.472118,-1.84016 -2.208178,-0.12267 -4.416356,-0.24535 -6.624534,-0.36802 -0.122677,0.24535 -0.245353,0.4907 -0.36803,0.73606 -0.858737,0.36803 -1.717474,0.73606 -2.576208,1.10409 -0.858737,0.61338 -1.717474,1.22676 -2.576208,1.84014 -0.368031,0 -0.736061,0 -1.104091,0 -0.36803,0.24536 -0.736057,0.49071 -1.104087,0.73606 -0.613384,0.12268 -1.226768,0.24536 -1.840151,0.36803 -0.736058,0 -1.472118,0 -2.208178,0 -0.736058,0 -1.472118,0 -2.208178,0 0,-0.98141 0,-1.96282 0,-2.94423 0.122676,-1.47213 0.245353,-2.94424 0.36803,-4.41636 0,-4.90706 0,-9.81413 0,-14.72119 -0.122677,-1.71747 -0.245354,-3.43494 -0.36803,-5.15242 0,-2.0855 0,-4.171 0,-6.2565 0,-4.41636 0,-8.83272 0,-13.24907 0,-4.17101 0,-8.34201 0,-12.51301 0.490707,-1.84015 0.981413,-3.6803 1.47212,-5.52045 0.368028,-0.61338 0.736058,-1.22677 1.104088,-1.84015 0,-0.24535 0,-0.49071 0,-0.73606 0.490707,-0.98141 0.981414,-1.96282 1.47212,-2.94424 0.490705,-1.47212 0.981411,-2.94423 1.472118,-4.41635 0.245354,-0.24536 0.490707,-0.49071 0.736061,-0.73606 0,-0.24535 0,-0.49071 0,-0.73606 0.36803,-0.61339 0.736057,-1.22677 1.104087,-1.84015 0.122677,-0.73606 0.245354,-1.47212 0.36803,-2.20818 0.36803,-0.36803 0.736061,-0.73606 1.104091,-1.10409 0.368027,-0.73606 0.736057,-1.47212 1.104087,-2.20818 0.490707,-1.10409 0.981414,-2.20817 1.472121,-3.31226 0.122677,-0.49071 0.245353,-0.98142 0.368027,-1.47212 0.490707,-0.85874 0.981414,-1.71748 1.472121,-2.576211 0.245353,-0.73606 0.490707,-1.47212 0.73606,-2.208178 0.613381,-0.613383 1.226765,-1.226767 1.840148,-1.84015 0.245354,-0.613381 0.490707,-1.226765 0.73606,-1.840148 0.490705,-0.613384 0.981411,-1.226765 1.472118,-1.840148 0.122677,-0.36803 0.245354,-0.736061 0.36803,-1.104091 0.122677,0 0.245354,0 0.36803,0 0.245354,-0.613383 0.490707,-1.226764 0.736058,-1.840148 0.613384,-0.858737 1.226767,-1.717471 1.840151,-2.576208 0.36803,-0.245353 0.736057,-0.490707 1.104087,-0.73606 0,-0.245353 0,-0.490707 0,-0.736058 0.613384,-0.981413 1.226767,-1.962827 1.840151,-2.944238 0.245351,-0.245353 0.490704,-0.490707 0.736058,-0.73606 2.576208,-3.680299 5.152416,-7.360595 7.728624,-11.040893 z"
       transform="matrix(0.86499985,0,0,1.0286704,16.433232,-8.2984192)" />
  </g>
</svg>
