<?xml version="1.0" encoding="UTF-8" standalone="no"?>
<!-- Created with Inkscape (http://www.inkscape.org/) -->

<svg
   width="141.71933mm"
   height="182.93866mm"
   viewBox="0 0 141.71933 182.93866"
   version="1.1"
   id="svg1"
   inkscape:version="1.4.2 (f4327f4, 2025-05-13)"
   sodipodi:docname="p2.svg"
   xmlns:inkscape="http://www.inkscape.org/namespaces/inkscape"
   xmlns:sodipodi="http://sodipodi.sourceforge.net/DTD/sodipodi-0.dtd"
   xmlns="http://www.w3.org/2000/svg"
   xmlns:svg="http://www.w3.org/2000/svg">
  <sodipodi:namedview
     id="namedview1"
     pagecolor="#ffffff"
     bordercolor="#000000"
     borderopacity="0.25"
     inkscape:showpageshadow="2"
     inkscape:pageopacity="0.0"
     inkscape:pagecheckerboard="0"
     inkscape:deskcolor="#d1d1d1"
     inkscape:document-units="mm"
     inkscape:zoom="0.71891835"
     inkscape:cx="276.10924"
     inkscape:cy="404.07927"
     inkscape:window-width="1920"
     inkscape:window-height="1009"
     inkscape:window-x="1072"
     inkscape:window-y="446"
     inkscape:window-maximized="1"
     inkscape:current-layer="svg1" />
  <defs
     id="defs1">
    <inkscape:path-effect
       effect="bspline"
       id="path-effect1"
       is_visible="true"
       lpeversion="1.3"
       weight="33.333333"
       steps="2"
       helper_size="0"
       apply_no_weight="true"
       apply_with_weight="true"
       only_selected="false"
       uniform="false" />
  </defs>
  <g
     inkscape:label="Layer 1"
     inkscape:groupmode="layer"
     id="layer1"
     transform="translate(-32.004646,-71.0158)">
    <rect
       style="fill:#f5d142;fill-opacity:1;stroke:#000000;stroke-width:1.5;stroke-dasharray:none;stroke-opacity:1"
       id="rect1"
       width="140.21933"
       height="181.43866"
       x="32.754646"
       y="71.7658" />
  </g>
  <g
     inkscape:groupmode="layer"
     id="layer3"
     inkscape:label="Layer 2"
     transform="translate(-32.004646,-71.0158)">
    <path
       style="fill:#b5e637;fill-opacity:1;stroke:#000000;stroke-width:0.75;stroke-dasharray:none;stroke-opacity:1"
       d="m 96.607806,121.14312 c 0.552045,-2.63755 1.656133,-7.0539 1.288103,-10.30483 -0.368029,-3.25093 -2.208178,-5.33643 -3.802974,-6.80855 -1.594797,-1.47212 -2.94424,-2.33085 -4.048329,-3.06691 -1.10409,-0.73606 -1.962823,-1.349447 -2.760221,-1.778815 -0.797397,-0.429369 -1.533457,-0.674722 -1.962825,-0.920076 -0.429368,-0.245353 -0.552045,-0.490708 -0.736059,-0.613384 -0.184014,-0.122676 -0.429367,-0.122676 -0.67472,-0.245352 -0.245353,-0.122676 -0.490707,-0.368029 -0.797399,-0.490705 -0.306692,-0.122677 -0.674722,-0.122677 -1.104089,-0.245354 -0.429368,-0.122676 -0.920074,-0.36803 -1.901487,-0.490706 -0.981412,-0.122677 -2.453533,-0.122677 -3.61896,-0.122677 -1.165427,0 -2.024162,0 -2.45353,0.06134 -0.429369,0.06134 -0.429369,0.184015 -0.920075,0.36803 -0.490707,0.184015 -1.472118,0.429368 -2.085501,0.674721 -0.613383,0.245353 -0.858737,0.490706 -1.47212,0.797397 -0.613382,0.306692 -1.594796,0.674722 -2.269516,1.104091 -0.674721,0.429368 -1.04275,0.920073 -1.472118,1.288102 -0.429368,0.36803 -0.920074,0.61339 -1.410779,0.98141 -0.490706,0.36803 -0.981414,0.85874 -1.226769,1.16543 -0.245354,0.30669 -0.245354,0.42937 -0.490706,0.61339 -0.245353,0.18401 -0.736058,0.42937 -1.104088,0.73606 -0.368031,0.30669 -0.613384,0.67472 -0.920076,0.98141 -0.306692,0.30669 -0.674722,0.55204 -0.920075,0.85873 -0.245353,0.30669 -0.368028,0.67472 -0.613381,1.04275 -0.245354,0.36803 -0.613384,0.73606 -0.981414,1.65614 -0.36803,0.92007 -0.73606,2.39219 -1.104089,3.31226 -0.36803,0.92008 -0.736059,1.28811 -1.104089,2.45353 -0.368029,1.16543 -0.736061,3.12826 -1.042752,4.53904 -0.306692,1.41078 -0.552045,2.26952 -0.613382,4.171 -0.06134,1.90149 0.06134,4.84573 0.184014,6.44053 0.122675,1.59479 0.245351,1.84014 0.30669,4.171 0.06134,2.33085 0.06134,6.74721 0.06134,9.4461 0,2.69888 0,3.68029 0.122677,4.41635 0.122678,0.73606 0.368032,1.22677 0.552046,2.14684 0.184013,0.92007 0.306691,2.26952 0.490706,3.00558 0.184016,0.73606 0.429367,0.85873 0.674721,1.16543 0.245354,0.30669 0.490704,0.79739 0.797396,1.22676 0.306692,0.42937 0.674722,0.7974 0.920075,1.16543 0.245354,0.36803 0.36803,0.73606 1.533458,1.96283 1.165427,1.22676 3.373606,3.31226 4.539033,4.53902 1.165428,1.22677 1.288104,1.5948 1.533458,1.84015 0.245354,0.24536 0.613385,0.36803 1.104091,0.85874 0.490706,0.49071 1.104086,1.34944 1.533454,1.77881 0.429369,0.42937 0.674723,0.42937 0.920075,0.61338 0.245352,0.18402 0.490705,0.55205 0.858735,0.85874 0.36803,0.30669 0.858735,0.55205 1.594795,1.04275 0.73606,0.49071 1.717474,1.22677 2.392193,1.65614 0.67472,0.42937 1.042751,0.55204 1.349443,0.85873 0.306691,0.30669 0.552048,0.7974 0.797402,1.16543 0.245354,0.36803 0.490705,0.61338 0.368027,2.88289 -0.122678,2.26952 -0.613384,6.56321 -1.410781,9.69146 -0.797397,3.12825 -1.901485,5.09107 -3.128252,7.66728 -1.226767,2.57621 -2.576209,5.7658 -3.434945,7.54461 -0.858736,1.77881 -1.226766,2.14684 -1.410781,2.45354 -0.184015,0.30669 -0.184015,0.55204 -0.552045,1.47211 -0.36803,0.92008 -1.104087,2.51487 -1.656132,3.6803 -0.552046,1.16543 -0.920075,1.90149 -1.104089,2.45353 -0.184015,0.55205 -0.184015,0.92008 -0.429367,1.53346 -0.245352,0.61338 -0.736061,1.47212 -0.981415,2.14684 -0.245354,0.67472 -0.245354,1.16543 -0.42937,1.71747 -0.184016,0.55205 -0.552043,1.16543 -0.858734,1.96282 -0.30669,0.7974 -0.552045,1.77882 -0.674722,2.51488 -0.122676,0.73606 -0.122676,1.22676 -0.245353,1.65613 -0.122676,0.42937 -0.368029,0.7974 -0.552045,1.71747 -0.184015,0.92008 -0.306691,2.3922 -0.245354,3.1896 0.06134,0.7974 0.306692,0.92007 0.490706,1.16542 0.184015,0.24535 0.306692,0.61338 0.613386,1.10409 0.306694,0.49071 0.797398,1.10409 2.024165,2.0855 1.226767,0.98142 3.18959,2.33086 4.355017,3.18959 1.165427,0.85874 1.533457,1.22677 2.024162,1.53346 0.490705,0.30669 1.104091,0.55205 1.410782,0.73606 0.306691,0.18402 0.306691,0.30669 0.552044,0.49071 0.245352,0.18401 0.736062,0.42937 0.981413,0.61338 0.245352,0.18402 0.245352,0.30669 0.368029,0.36803 0.122676,0.0613 0.36803,0.0613 0.920074,0.36803 0.552044,0.30669 1.410777,0.92007 1.901486,1.34944 0.490708,0.42937 0.613385,0.67472 0.7974,0.7974 0.184015,0.12267 0.429368,0.12267 0.552045,0.18401 0.122677,0.0613 0.122677,0.18402 0.368028,0.3067 0.245352,0.12268 0.736059,0.24535 1.042751,0.42937 0.306691,0.18401 0.429367,0.42936 1.104088,0.79739 0.674721,0.36803 1.90149,0.85874 2.637549,0.92007 0.73606,0.0613 0.98141,-0.30668 1.349442,-0.73605 0.368032,-0.42937 0.85874,-0.92008 1.104091,-1.28811 0.245352,-0.36803 0.245352,-0.61338 0.368028,-0.79739 0.122677,-0.18402 0.368032,-0.30669 0.613385,-0.67473 0.245353,-0.36803 0.490705,-0.98141 0.736058,-1.2881 0.245353,-0.30669 0.490706,-0.30669 0.613383,-0.42936 0.122676,-0.12268 0.122676,-0.36804 0.245354,-0.55205 0.122677,-0.18402 0.368026,-0.30669 0.490703,-0.98142 0.122677,-0.67472 0.122677,-1.90148 0.184015,-4.171 0.06134,-2.26952 0.184015,-5.58178 0.245354,-7.66728 0.06134,-2.08551 0.06134,-2.94424 0.490707,-4.29368 0.429368,-1.34945 1.288106,-3.1896 1.84015,-4.53904 0.552044,-1.34944 0.797398,-2.20818 1.10409,-2.8829 0.306691,-0.67472 0.674722,-1.16543 1.04275,-1.84015 0.368028,-0.67472 0.736057,-1.53345 1.226765,-2.20817 0.490707,-0.67473 1.104088,-1.16543 1.533457,-1.65614 0.429369,-0.49071 0.674719,-0.98141 1.104088,-1.2881 0.42937,-0.3067 1.042752,-0.42937 1.533457,-0.73606 0.490704,-0.30669 0.858735,-0.7974 1.226766,-1.04276 0.368031,-0.24535 0.736061,-0.24535 1.042752,-0.36802 0.30669,-0.12268 0.55204,-0.36803 0.98141,-0.55205 0.42937,-0.18402 1.04275,-0.30669 2.51487,-0.42937 1.47212,-0.12268 3.80298,-0.24535 5.21376,-0.30669 1.41078,-0.0613 1.90148,-0.0613 2.51486,-0.49071 0.61339,-0.42936 1.34945,-1.2881 1.96283,-2.02416 0.61339,-0.73605 1.10409,-1.34944 1.41079,-1.65613 0.30669,-0.30669 0.42936,-0.30669 0.4907,-0.73606 0.0613,-0.42937 0.0613,-1.28811 -0.18401,-1.90149 -0.24536,-0.61338 -0.73607,-0.98141 -1.04276,-1.34944 -0.30669,-0.36803 -0.42936,-0.73606 -0.73606,-0.98141 -0.30669,-0.24536 -0.79739,-0.36803 -1.22676,-0.67472 -0.42937,-0.30669 -0.7974,-0.7974 -1.04275,-1.04276 -0.24536,-0.24535 -0.36803,-0.24535 -0.49071,-0.73606 -0.12268,-0.4907 -0.24535,-1.47211 -0.30669,-2.33085 -0.0613,-0.85874 -0.0613,-1.59479 0.85873,-2.88289 0.92008,-1.28811 2.76023,-3.12826 3.80298,-4.04833 1.04275,-0.92008 1.2881,-0.92008 1.47212,-1.10409 0.18402,-0.18402 0.30669,-0.55205 0.55205,-0.7974 0.24535,-0.24536 0.61338,-0.36804 0.92007,-0.61339 0.30669,-0.24535 0.55204,-0.61338 0.79739,-0.85874 0.24536,-0.24535 0.49071,-0.36802 0.7974,-1.04274 0.30669,-0.67472 0.67472,-1.90149 0.85873,-2.82157 0.18402,-0.92007 0.18402,-1.53345 0.3067,-2.02416 0.12268,-0.4907 0.36803,-0.85873 0.4907,-1.16543 0.12268,-0.30669 0.12268,-0.55204 0.18402,-0.67471 0.0613,-0.12268 0.18402,-0.12268 0.12268,-0.85874 -0.0613,-0.73606 -0.3067,-2.20818 -0.61339,-3.00558 -0.30669,-0.7974 -0.67472,-0.92007 -0.85873,-1.04275 -0.18402,-0.12268 -0.18402,-0.24535 -0.3067,-0.42936 -0.12267,-0.18402 -0.36802,-0.42937 -0.67471,-0.61339 -0.3067,-0.18402 -0.67473,-0.30669 -0.98142,-0.61338 -0.30669,-0.30669 -0.55204,-0.7974 -1.34944,-2.3922 -0.79739,-1.59479 -2.14684,-4.29368 -3.00557,-5.94981 -0.85874,-1.65613 -1.22677,-2.26952 -1.65614,-3.25093 -0.42937,-0.98141 -0.92007,-2.33086 -1.16543,-3.18959 -0.24535,-0.85874 -0.24535,-1.22677 -0.30669,-1.41078 -0.0613,-0.18402 -0.18401,-0.18402 -0.42936,-0.49071 -0.24536,-0.30669 -0.61339,-0.92007 -1.04276,-1.90148 -0.42937,-0.98142 -0.92007,-2.33086 -1.34944,-3.12826 -0.42937,-0.79739 -0.7974,-1.04275 -1.10409,-1.16542 -0.30669,-0.12268 -0.55204,-0.12268 -0.67472,-0.18402 -0.12268,-0.0613 -0.12268,-0.18402 -0.85874,-0.49071 -0.73605,-0.30668 -2.20817,-0.79739 -3.86431,-1.84015 -1.656132,-1.04275 -3.496279,-2.63754 -4.539029,-3.49628 -1.042751,-0.85874 -1.288106,-0.98141 -1.410783,-1.96283 -0.122677,-0.98141 -0.122677,-2.82155 0,-3.98698 0.122678,-1.16543 0.368032,-1.65614 0.490708,-2.14684 0.122675,-0.49071 0.122675,-0.98141 0.184013,-1.22676 0.06134,-0.24536 0.184015,-0.24536 0.245353,-0.36803 0.06134,-0.12268 0.06134,-0.36804 0.06134,-0.92008 0,-0.55205 0,-1.41078 0.552045,-4.04833 z"
       id="path1"
       inkscape:path-effect="#path-effect1"
       inkscape:original-d="m 96.055761,122.92193 c 1.10409,-4.41636 2.208178,-8.83271 3.312268,-13.24907 -1.84015,-2.0855 -3.680298,-4.171 -5.520446,-6.2565 -1.349444,-0.85874 -2.698885,-1.71748 -4.048329,-2.57621 -0.858734,-0.61339 -1.717471,-1.226767 -2.576208,-1.840151 -0.736058,-0.245353 -1.472118,-0.490707 -2.208178,-0.73606 -0.122677,-0.245353 -0.245354,-0.490707 -0.368028,-0.73606 -0.245353,0 -0.490706,0 -0.73606,0 -0.245353,-0.245351 -0.490707,-0.490704 -0.73606,-0.736058 -0.36803,0 -0.73606,0 -1.104088,0 -0.490707,-0.245353 -0.981413,-0.490707 -1.47212,-0.73606 -1.472118,0 -2.944239,0 -4.416356,0 -0.858737,0 -1.717472,0 -2.576209,0 0,0.122677 0,0.245353 0,0.36803 -0.981413,0.245353 -1.962824,0.490707 -2.944238,0.73606 -0.245353,0.245351 -0.490707,0.490704 -0.73606,0.736058 -0.981411,0.36803 -1.962825,0.73606 -2.944236,1.10409 -0.36803,0.490707 -0.73606,0.981411 -1.10409,1.472121 -0.490707,0.24535 -0.981414,0.4907 -1.472118,0.73606 -0.490707,0.4907 -0.981414,0.98141 -1.472121,1.47212 0,0.12267 0,0.24535 0,0.36803 -0.490706,0.24535 -0.981413,0.4907 -1.472117,0.73606 -0.245354,0.36803 -0.490707,0.73606 -0.736061,1.10409 -0.36803,0.24535 -0.73606,0.4907 -1.10409,0.73605 -0.122677,0.36803 -0.245351,0.73606 -0.368027,1.10409 -0.368031,0.36803 -0.736061,0.73606 -1.104091,1.10409 -0.36803,1.47212 -0.73606,2.94424 -1.10409,4.41636 -0.368028,0.36803 -0.736058,0.73606 -1.104088,1.10409 -0.36803,1.96282 -0.73606,3.92565 -1.10409,5.88847 -0.245354,0.85874 -0.490704,1.71748 -0.736058,2.57621 0.122677,2.94424 0.245354,5.88848 0.368028,8.83272 0.122676,0.24535 0.245353,0.4907 0.36803,0.73606 0,4.41635 0,8.83271 0,13.24907 0,0.98141 0,1.96282 0,2.94423 0.245353,0.49071 0.490707,0.98142 0.73606,1.47212 0.122677,1.34944 0.245353,2.69889 0.36803,4.04833 0.245354,0.12268 0.490707,0.24535 0.73606,0.36803 0.245351,0.49071 0.490705,0.98141 0.736058,1.47212 0.36803,0.36803 0.73606,0.73606 1.10409,1.10409 0.122677,0.36803 0.245354,0.73606 0.36803,1.10409 2.208178,2.0855 4.416357,4.171 6.624535,6.2565 0.122676,0.36803 0.245353,0.73606 0.36803,1.10409 0.36803,0.12268 0.73606,0.24536 1.10409,0.36803 0.613381,0.85874 1.226765,1.71747 1.840148,2.57621 0.245353,0 0.490707,0 0.736058,0 0.245353,0.36803 0.490706,0.73606 0.73606,1.10409 0.490707,0.24535 0.981414,0.4907 1.47212,0.73606 0.981411,0.73606 1.962825,1.47212 2.944236,2.20818 0.36803,0.12267 0.73606,0.24535 1.10409,0.36803 0.245354,0.4907 0.490707,0.98141 0.736061,1.47211 0.245353,0.24536 0.490706,0.49071 0.736057,0.73606 -0.490704,4.29368 -0.981411,8.58737 -1.472118,12.88105 -1.10409,1.96282 -2.208178,3.92564 -3.312268,5.88847 -1.349441,3.18959 -2.698885,6.37918 -4.048326,9.56877 -0.36803,0.36803 -0.73606,0.73606 -1.10409,1.10409 0,0.24536 0,0.49071 0,0.73606 -0.736058,1.5948 -1.472118,3.18959 -2.208178,4.78439 -0.368031,0.73606 -0.736058,1.47212 -1.104088,2.20818 0,0.36803 0,0.73606 0,1.10409 -0.490707,0.85873 -0.981414,1.71747 -1.472121,2.57621 0,0.4907 0,0.98141 0,1.47211 -0.36803,0.61339 -0.736057,1.22677 -1.104087,1.84015 -0.245354,0.98141 -0.490707,1.96283 -0.736061,2.94424 0,0.49071 0,0.98141 0,1.47212 -0.245353,0.36803 -0.490706,0.73606 -0.73606,1.10409 -0.122677,1.47212 -0.245353,2.94424 -0.36803,4.41636 0.245353,0.12267 0.490707,0.24535 0.73606,0.36803 0.122677,0.36802 0.245354,0.73605 0.36803,1.10408 0.490707,0.61339 0.981414,1.22677 1.472118,1.84015 1.962828,1.34945 3.925652,2.69889 5.888477,4.04833 0.36803,0.36803 0.73606,0.73606 1.10409,1.10409 0.613381,0.24535 1.226765,0.49071 1.840148,0.73606 0,0.12268 0,0.24535 0,0.36803 0.490707,0.24535 0.981414,0.49071 1.472118,0.73606 0,0.12268 0,0.24535 0,0.36803 0.245353,0 0.490707,0 0.73606,0 0.858737,0.61338 1.717471,1.22676 2.576208,1.84015 0.122677,0.24535 0.245354,0.4907 0.368031,0.73605 0.245353,0 0.490706,0 0.73606,0 0,0.12268 0,0.24536 0,0.36804 0.490704,0.12267 0.981411,0.24535 1.472118,0.36803 0.122676,0.24535 0.245353,0.4907 0.36803,0.73606 1.226764,0.4907 2.453531,0.98141 3.680296,1.47211 0.245353,-0.36803 0.490706,-0.73605 0.73606,-1.10408 0.490707,-0.49071 0.981414,-0.98142 1.47212,-1.47212 0,-0.24536 0,-0.49071 0,-0.73606 0.245351,-0.12268 0.490705,-0.24536 0.736058,-0.36803 0.245353,-0.61339 0.490707,-1.22677 0.73606,-1.84015 0.245354,0 0.490707,0 0.73606,0 0,-0.24535 0,-0.49071 0,-0.73606 0.245354,-0.12268 0.490705,-0.24535 0.736058,-0.36803 0,-1.22677 0,-2.45353 0,-3.6803 0.122677,-3.31227 0.245353,-6.62453 0.36803,-9.9368 0,-0.85874 0,-1.71747 0,-2.57621 0.858737,-1.84015 1.717474,-3.6803 2.576208,-5.52044 0.245354,-0.85874 0.490707,-1.71748 0.736061,-2.57621 0.36803,-0.49071 0.73606,-0.98142 1.104087,-1.47212 0.36803,-0.85874 0.736061,-1.71747 1.104091,-2.57621 0.613383,-0.49071 1.226767,-0.98141 1.840148,-1.47212 0.245353,-0.49071 0.490706,-0.98141 0.73606,-1.47212 0.613383,-0.12268 1.226767,-0.24535 1.840148,-0.36803 0.36803,-0.4907 0.73606,-0.98141 1.10409,-1.47212 0.36803,0 0.73606,0 1.104091,0 0.24535,-0.24535 0.4907,-0.4907 0.73606,-0.73606 0.61338,-0.12267 1.22676,-0.24535 1.84015,-0.36803 2.33085,-0.12267 4.66171,-0.24535 6.99256,-0.36803 0.49071,0 0.98141,0 1.47212,0 0.73606,-0.85873 1.47212,-1.71747 2.20818,-2.5762 0.4907,-0.61339 0.98141,-1.22677 1.47212,-1.84015 0.12268,0 0.24535,0 0.36803,0 0,-0.85874 0,-1.71748 0,-2.57621 -0.49071,-0.36803 -0.98142,-0.73606 -1.47212,-1.10409 -0.12268,-0.36803 -0.24536,-0.73606 -0.36803,-1.10409 -0.49071,-0.12268 -0.98141,-0.24535 -1.47212,-0.36803 -0.36803,-0.4907 -0.73606,-0.98141 -1.10409,-1.47212 -0.12268,0 -0.24535,0 -0.36803,0 -0.12268,-0.98141 -0.24535,-1.96282 -0.36803,-2.94424 0,-0.73606 0,-1.47211 0,-2.20817 1.84015,-1.84015 3.6803,-3.6803 5.52045,-5.52045 0.24535,0 0.4907,0 0.73606,0 0.12267,-0.36803 0.24535,-0.73606 0.36803,-1.10409 0.36803,-0.12268 0.73606,-0.24535 1.10408,-0.36803 0.24536,-0.36803 0.49071,-0.73606 0.73606,-1.10409 0.24536,-0.12268 0.49071,-0.24535 0.73606,-0.36803 0.36803,-1.22676 0.73606,-2.45353 1.10409,-3.6803 0,-0.61338 0,-1.22676 0,-1.84014 0.24536,-0.36803 0.49071,-0.73606 0.73606,-1.10409 0,-0.24536 0,-0.49071 0,-0.73606 0.12268,0 0.24536,0 0.36803,0 -0.24535,-1.47212 -0.4907,-2.94424 -0.73606,-4.41636 -0.36803,-0.12268 -0.73606,-0.24535 -1.10409,-0.36803 0,-0.12268 0,-0.24535 0,-0.36803 -0.24535,-0.24535 -0.4907,-0.4907 -0.73606,-0.73606 -0.36803,-0.12267 -0.73606,-0.24535 -1.10409,-0.36803 -0.24535,-0.4907 -0.4907,-0.98141 -0.73605,-1.47212 -1.34945,-2.69888 -2.69889,-5.39777 -4.04833,-8.09665 -0.36803,-0.61338 -0.73606,-1.22677 -1.10409,-1.84015 -0.49071,-1.34944 -0.98141,-2.69889 -1.47212,-4.04833 0,-0.36803 0,-0.73606 0,-1.10409 -0.12268,0 -0.24535,0 -0.36803,0 -0.36803,-0.61338 -0.73606,-1.22676 -1.10409,-1.84015 -0.4907,-1.34944 -0.98141,-2.69888 -1.47212,-4.04832 -0.36803,-0.24535 -0.73606,-0.49071 -1.10409,-0.73606 -0.24535,0 -0.4907,0 -0.73606,0 0,-0.12268 0,-0.24536 0,-0.36803 -1.47211,-0.49071 -2.94423,-0.98142 -4.41635,-1.47212 -1.840151,-1.5948 -3.680301,-3.18959 -5.520449,-4.78439 -0.245354,-0.12267 -0.490707,-0.24535 -0.73606,-0.36803 0,-1.84015 0,-3.68029 0,-5.52044 0.245353,-0.49071 0.490706,-0.98142 0.73606,-1.47212 0,-0.49071 0,-0.98141 0,-1.47212 0.122676,0 0.245353,0 0.36803,0 0,-0.24535 0,-0.49071 0,-0.73606 0,-0.85874 0,-1.71747 0,-2.57621 z"
       transform="matrix(0.87464988,0.21807471,-0.25399568,1.0187211,62.898422,-24.882815)" />
  </g>
  <g
     inkscape:groupmode="layer"
     id="layer4"
     inkscape:label="Layer 3"
     transform="translate(-32.004646,-71.015799)">
    <circle
       style="fill:#fffa00;fill-opacity:1;stroke:#000000;stroke-width:0.750001;stroke-dasharray:none;stroke-opacity:1"
       id="path2"
       cx="127.70632"
       cy="130.65054"
       r="18.401487" />
  </g>
</svg>
