<?xml version="1.0" encoding="UTF-8" standalone="no"?>
<!-- Created with Inkscape (http://www.inkscape.org/) -->

<svg
   width="141.71933mm"
   height="182.93866mm"
   viewBox="0 0 141.71933 182.93866"
   version="1.1"
   id="svg1"
   inkscape:version="1.4.2 (f4327f4, 2025-05-13)"
   sodipodi:docname="p3.svg"
   xmlns:inkscape="http://www.inkscape.org/namespaces/inkscape"
   xmlns:sodipodi="http://sodipodi.sourceforge.net/DTD/sodipodi-0.dtd"
   xmlns="http://www.w3.org/2000/svg"
   xmlns:svg="http://www.w3.org/2000/svg">
  <sodipodi:namedview
     id="namedview1"
     pagecolor="#ffffff"
     bordercolor="#000000"
     borderopacity="0.25"
     inkscape:showpageshadow="2"
     inkscape:pageopacity="0.0"
     inkscape:pagecheckerboard="0"
     inkscape:deskcolor="#d1d1d1"
     inkscape:document-units="mm"
     inkscape:zoom="0.71891835"
     inkscape:cx="276.10924"
     inkscape:cy="404.07927"
     inkscape:window-width="1920"
     inkscape:window-height="1009"
     inkscape:window-x="1072"
     inkscape:window-y="446"
     inkscape:window-maximized="1"
     inkscape:current-layer="layer4" />
  <defs
     id="defs1">
    <inkscape:path-effect
       effect="bspline"
       id="path-effect3"
       is_visible="true"
       lpeversion="1.3"
       weight="33.333333"
       steps="2"
       helper_size="0"
       apply_no_weight="true"
       apply_with_weight="true"
       only_selected="false"
       uniform="false" />
    <inkscape:path-effect
       effect="bspline"
       id="path-effect1"
       is_visible="true"
       lpeversion="1.3"
       weight="33.333333"
       steps="2"
       helper_size="0"
       apply_no_weight="true"
       apply_with_weight="true"
       only_selected="false"
       uniform="false" />
  </defs>
  <g
     inkscape:label="Layer 1"
     inkscape:groupmode="layer"
     id="layer1"
     transform="translate(-32.004646,-71.0158)">
    <rect
       style="fill:#f5d142;fill-opacity:1;stroke:#000000;stroke-width:1.5;stroke-dasharray:none;stroke-opacity:1"
       id="rect1"
       width="140.21933"
       height="181.43866"
       x="32.754646"
       y="71.7658" />
  </g>
  <g
     inkscape:groupmode="layer"
     id="layer3"
     inkscape:label="Layer 2"
     transform="translate(-32.004646,-71.0158)">
    <path
       style="fill:#b5e637;fill-opacity:1;stroke:#000000;stroke-width:0.750001;stroke-dasharray:none;stroke-opacity:1"
       d="m 55.633828,18.401487 c -2.024163,0.122677 -4.723048,0.245353 -6.808549,0.920074 -2.085501,0.674721 -3.557622,1.901488 -4.784387,2.821562 -1.226766,0.920074 -2.20818,1.533458 -3.128253,2.330855 -0.920074,0.797398 -1.77881,1.778809 -2.51487,2.576207 -0.73606,0.797399 -1.349443,1.410782 -1.840149,2.146841 -0.490705,0.736059 -0.858736,1.594796 -1.533457,3.005576 -0.674722,1.410781 -1.656134,3.373605 -2.51487,6.072491 -0.858737,2.698885 -1.594795,6.133827 -1.962825,8.21933 -0.36803,2.085503 -0.36803,2.82156 -0.429369,3.18959 -0.06134,0.36803 -0.184014,0.36803 -0.306691,0.674722 -0.122677,0.306692 -0.245354,0.920076 -0.490707,1.410781 -0.245353,0.490706 -0.613382,0.858736 -0.858735,1.288104 -0.245353,0.429369 -0.36803,0.920075 -0.613383,1.410781 -0.245353,0.490705 -0.613383,0.981412 -0.920075,1.656134 -0.306691,0.674722 -0.552044,1.533456 -0.858736,2.208178 -0.306691,0.674722 -0.67472,1.165426 -0.920073,1.840148 -0.245354,0.674722 -0.368031,1.533459 -0.613384,2.269518 -0.245353,0.736059 -0.613382,1.349442 -0.797397,2.085501 -0.184015,0.736059 -0.184015,1.594796 -0.429368,2.8829 -0.245353,1.288104 -0.73606,3.005576 -0.981413,4.048326 -0.245353,1.042751 -0.245353,1.410781 -0.306692,1.656134 -0.06134,0.245354 -0.184015,0.368031 -0.306691,0.552046 -0.122676,0.184015 -0.245353,0.429368 -0.306691,0.736059 -0.06134,0.30669 -0.06134,0.67472 -0.184015,1.226765 -0.122677,0.552046 -0.36803,1.288106 -0.73606,2.085503 -0.36803,0.797397 -0.858736,1.656134 -1.656134,3.250928 -0.797397,1.594795 -1.901486,3.92565 -2.45353,5.213754 -0.552045,1.288104 -0.552045,1.533458 -0.674722,1.778812 -0.122677,0.245353 -0.36803,0.490706 -0.490707,0.73606 -0.122676,0.245353 -0.122676,0.490706 -0.184014,0.613383 -0.06134,0.122677 -0.184015,0.122677 -0.245354,0.245354 -0.06134,0.122676 -0.06134,0.368027 -0.122676,0.490704 -0.06134,0.122676 -0.184015,0.122676 -0.245353,0.245353 -0.06134,0.122677 -0.06134,0.36803 -0.184015,0.674722 -0.122677,0.306692 -0.36803,0.674722 -0.490706,1.84015 -0.122677,1.165427 -0.122677,3.128251 -0.122677,4.539032 0,1.410781 0,2.269518 0.184014,2.821565 0.184014,0.55204 0.552043,0.79739 0.797396,1.16542 0.245354,0.36803 0.368032,0.85874 0.920076,1.53346 0.552044,0.67472 1.53346,1.53346 2.208181,2.20818 0.674721,0.67472 1.042753,1.16543 1.288104,1.41078 0.245352,0.24535 0.368028,0.24535 0.429366,0.30669 0.06134,0.0613 0.06134,0.18402 0.490707,0.42937 0.429368,0.24535 1.288104,0.61338 1.717472,0.92008 0.429368,0.30669 0.429368,0.55204 0.674723,0.79739 0.245355,0.24535 0.736059,0.49071 1.104088,0.7974 0.368029,0.30669 0.613382,0.67472 1.410779,1.53346 0.797398,0.85873 2.146838,2.20817 3.005574,3.31226 0.858737,1.10409 1.226767,1.96283 1.472121,2.3922 0.245354,0.42937 0.36803,0.42937 0.429368,0.92008 0.06134,0.4907 0.06134,1.47211 0.184016,2.20817 0.122678,0.73606 0.368032,1.22677 0.490708,1.77881 0.122675,0.55205 0.122675,1.16543 0.245353,1.53346 0.122677,0.36803 0.368028,0.4907 0.490705,0.61338 0.122677,0.12268 0.122677,0.24535 0.674721,0.24535 0.552044,0 1.656135,-0.12267 2.514869,-0.4907 0.858735,-0.36803 1.472122,-0.98142 2.392194,-1.53346 0.920072,-0.55205 2.14684,-1.04275 3.802973,-1.5948 1.656133,-0.55204 3.741634,-1.16543 4.968401,-1.59479 1.226767,-0.42937 1.594793,-0.67472 2.024163,-0.7974 0.42937,-0.12268 0.920077,-0.12268 1.410783,-0.24535 0.490705,-0.12268 0.981412,-0.36803 1.778811,-0.4907 0.797398,-0.12268 1.901486,-0.12268 2.760221,0.0613 0.858736,0.18402 1.472118,0.55204 2.269518,0.79739 0.797399,0.24536 1.778811,0.36803 2.330857,0.55205 0.552045,0.18402 0.674721,0.42937 0.981412,0.73606 0.306691,0.30669 0.797395,0.67472 1.104088,0.98141 0.306693,0.3067 0.429369,0.55205 0.552045,0.67472 0.122676,0.12268 0.245353,0.12268 0.613383,0.73606 0.36803,0.61339 0.98141,1.84015 1.472118,2.69889 0.490708,0.85874 0.858735,1.34944 1.042751,1.90149 0.184016,0.55204 0.184016,1.16542 0.184016,1.90148 0,0.73606 0,1.5948 -0.429369,2.57621 -0.429369,0.98142 -1.288102,2.0855 -1.840148,2.69888 -0.552046,0.61339 -0.797401,0.73606 -1.226769,1.04276 -0.429367,0.30669 -1.042748,0.79739 -1.840146,1.22676 -0.797398,0.42937 -1.778812,0.7974 -2.637548,1.22677 -0.858736,0.42937 -1.594793,0.92007 -2.330853,1.22676 -0.736061,0.3067 -1.472119,0.42937 -2.085502,0.61339 -0.613382,0.18401 -1.104091,0.42937 -2.637548,0.67472 -1.533457,0.24535 -4.109664,0.49071 -5.827135,0.73606 -1.717471,0.24535 -2.576207,0.49071 -3.312267,0.61338 -0.73606,0.12268 -1.349444,0.12268 -2.760225,0.67472 -1.41078,0.55205 -3.618958,1.65614 -5.091078,2.33086 -1.472119,0.67472 -2.208179,0.92007 -2.698887,1.16542 -0.490707,0.24536 -0.736058,0.49071 -1.349441,0.85874 -0.613383,0.36803 -1.594798,0.85873 -2.269517,1.10409 -0.67472,0.24535 -1.04275,0.24535 -1.226765,0.30669 -0.184014,0.0613 -0.184014,0.18402 -0.306691,0.24536 -0.122677,0.0613 -0.36803,0.0613 -0.73606,0.24534 -0.368029,0.18402 -0.858735,0.55205 -1.594795,0.92008 -0.736059,0.36803 -1.717472,0.73606 -2.208179,0.98141 -0.490706,0.24536 -0.490706,0.36803 -0.736059,0.49071 -0.245354,0.12268 -0.736058,0.24535 -1.349441,0.61338 -0.613382,0.36803 -1.349446,0.98142 -1.717474,1.41078 -0.368029,0.42937 -0.368029,0.67473 -0.552044,0.98142 -0.184015,0.30669 -0.552045,0.67472 -1.104088,1.47212 -0.552043,0.79739 -1.288104,2.02416 -1.656134,2.82156 -0.368031,0.7974 -0.368031,1.16543 -0.429369,1.34945 -0.06134,0.18401 -0.184015,0.18401 -0.306691,0.30669 -0.122676,0.12267 -0.245351,0.36802 -0.306691,0.85873 -0.06134,0.4907 -0.06134,1.22676 0.06134,1.84014 0.122677,0.61339 0.368028,1.10409 0.613382,1.41078 0.245354,0.3067 0.490706,0.42937 0.613383,0.61339 0.122677,0.18402 0.122677,0.42937 0.368031,0.67472 0.245355,0.24535 0.736059,0.49071 1.04275,0.73606 0.30669,0.24535 0.429369,0.49071 1.840148,1.28811 1.41078,0.79739 4.109663,2.14684 6.563196,2.8829 2.453533,0.73606 4.661711,0.85873 6.317845,0.92007 1.656134,0.0613 2.760222,0.0613 3.618958,-0.0613 0.858737,-0.12267 1.472122,-0.36803 2.698888,-0.55204 1.226765,-0.18402 3.066913,-0.30669 5.33643,-0.36803 2.269516,-0.0613 4.968401,-0.0613 7.851301,0.36803 2.882901,0.42937 5.949814,1.2881 8.280669,1.59479 2.330856,0.3067 3.92565,0.0613 5.459108,-0.0613 1.533457,-0.12268 3.005575,-0.12268 3.864313,-0.24536 0.858738,-0.12268 1.104088,-0.36803 2.45353,-0.55204 1.349441,-0.18402 3.802973,-0.30669 5.029738,-0.42937 1.226766,-0.12268 1.226766,-0.24535 1.656135,-0.42937 0.42937,-0.18401 1.288106,-0.42937 2.085503,-0.7974 0.797398,-0.36803 1.53346,-0.85874 2.208179,-1.16543 0.67472,-0.30669 1.288101,-0.42936 1.656133,-0.55204 0.368031,-0.12268 0.490704,-0.24535 0.67472,-0.30669 0.184016,-0.0613 0.429367,-0.0613 0.552044,-0.12268 0.122677,-0.0613 0.122677,-0.18401 0.245353,-0.24535 0.122677,-0.0613 0.36803,-0.0613 0.490707,-0.12268 0.122677,-0.0613 0.122677,-0.18401 0.245353,-0.24535 0.122677,-0.0613 0.368031,-0.0613 0.920075,-0.24535 0.552043,-0.18402 1.41078,-0.55205 1.840149,-0.7974 0.429368,-0.24535 0.429368,-0.36803 0.613383,-0.42937 0.184015,-0.0613 0.552043,-0.0613 0.736058,-0.12267 0.184015,-0.0613 0.184015,-0.18402 0.490706,-0.36804 0.306692,-0.18401 0.920077,-0.42937 1.656135,-0.85873 0.736058,-0.42937 1.594793,-1.04275 2.392192,-1.53346 0.797398,-0.49071 1.533459,-0.85874 1.962827,-1.16543 0.429369,-0.30669 0.552045,-0.55204 0.736059,-0.67471 0.184014,-0.12268 0.429367,-0.12268 0.613383,-0.18402 0.184016,-0.0613 0.306694,-0.18402 0.613385,-0.30669 0.306691,-0.12268 0.797398,-0.24535 1.472119,-0.55205 0.674721,-0.30669 1.533458,-0.79739 2.085501,-1.04275 0.552042,-0.24535 0.797392,-0.24535 1.288102,-0.55204 0.49071,-0.3067 1.22677,-0.92008 2.51487,-2.45354 1.28811,-1.53345 3.12825,-3.98699 4.10966,-5.27509 0.98141,-1.2881 1.10409,-1.41078 1.28811,-1.53346 0.18402,-0.12268 0.42937,-0.24535 0.67472,-0.67472 0.24535,-0.42937 0.49071,-1.16543 0.73606,-1.71747 0.24535,-0.55205 0.49071,-0.92007 0.61338,-1.34944 0.12268,-0.42937 0.12268,-0.92008 0.18402,-1.16543 0.0613,-0.24535 0.18401,-0.24535 0.30669,-1.71747 0.12268,-1.47212 0.24535,-4.41636 0.55204,-6.50186 0.3067,-2.0855 0.7974,-3.31227 1.16543,-4.10966 0.36803,-0.7974 0.61338,-1.16543 0.73606,-1.53346 0.12268,-0.36803 0.12268,-0.73606 0.42937,-1.77881 0.30669,-1.04275 0.92008,-2.76023 1.22677,-4.41636 0.30669,-1.65613 0.30669,-3.25093 0.0613,-6.31785 -0.24536,-3.06691 -0.73606,-7.60594 -1.84015,-10.85687 -1.10409,-3.25093 -2.82157,-5.21376 -3.86432,-6.5632 -1.04275,-1.349441 -1.41078,-2.085501 -1.90149,-2.882897 -0.4907,-0.797397 -1.10409,-1.656132 -1.59479,-2.208178 -0.49071,-0.552047 -0.85874,-0.797402 -1.16543,-1.104094 -0.30669,-0.306691 -0.55204,-0.67472 -0.92007,-0.981411 -0.36803,-0.306691 -0.85874,-0.552045 -1.41078,-0.797398 -0.55205,-0.245353 -1.16543,-0.490705 -2.33086,-1.104088 -1.165424,-0.613383 -2.882897,-1.594796 -3.741633,-2.14684 -0.858736,-0.552045 -0.858736,-0.674721 -1.226766,-0.797398 -0.36803,-0.122677 -1.104088,-0.245353 -1.472118,-0.368029 -0.36803,-0.122675 -0.36803,-0.245352 -0.797398,-0.490706 -0.429369,-0.245353 -1.288104,-0.613383 -1.901488,-0.981413 -0.613383,-0.36803 -0.981414,-0.736059 -1.349442,-0.981412 C 89.431227,84.524164 89.063197,84.401487 88.57249,84.094795 88.081783,83.788103 87.4684,83.297396 87.039032,83.052043 86.609665,82.80669 86.364312,82.80669 85.996282,82.622675 85.628251,82.43866 85.137546,82.070631 84.340148,81.641263 83.54275,81.211895 82.43866,80.721188 81.457248,80.169144 80.475836,79.617099 79.617101,79.003717 79.126394,78.574349 78.635687,78.14498 78.513011,77.899627 78.206319,77.654273 77.899627,77.40892 77.40892,77.163567 76.979553,76.856877 c -0.429367,-0.306691 -0.797397,-0.674721 -1.165427,-0.920075 -0.368031,-0.245354 -0.736061,-0.36803 -1.10409,-0.674721 -0.36803,-0.306692 -0.736059,-0.797397 -1.04275,-1.104089 -0.306692,-0.306691 -0.552045,-0.429368 -0.674722,-0.613383 -0.122677,-0.184015 -0.122677,-0.429368 -0.306692,-0.674722 -0.184015,-0.245354 -0.552045,-0.490707 -1.04275,-1.165428 -0.490706,-0.67472 -1.10409,-1.77881 -1.410782,-2.514869 -0.306691,-0.736059 -0.306691,-1.104089 -0.490705,-1.77881 -0.184015,-0.67472 -0.552044,-1.656134 -0.736059,-2.392193 -0.184015,-0.736059 -0.184015,-1.226766 -0.36803,-1.717472 -0.184015,-0.490707 -0.552046,-0.981413 -0.73606,-1.410781 -0.184015,-0.429367 -0.184015,-0.797398 -0.306692,-1.226766 -0.122676,-0.429368 -0.368029,-0.920075 -0.490705,-1.778811 -0.122676,-0.858736 -0.122676,-2.0855 -0.122676,-3.434942 0,-1.349443 0,-2.821563 0.122676,-3.680298 0.122676,-0.858736 0.368029,-1.104089 0.552044,-1.472119 0.184015,-0.368031 0.306692,-0.858738 0.429368,-1.533458 0.122677,-0.674721 0.245354,-1.533458 0.306692,-2.698885 0.06134,-1.165428 0.06134,-2.637546 0.122676,-4.109665 0.06134,-1.472119 0.184015,-2.944237 0.245354,-4.723048 0.06134,-1.778811 0.06134,-3.864312 -0.306692,-5.827138 -0.36803,-1.962826 -1.104089,-3.802974 -1.77881,-5.091078 -0.674722,-1.288104 -1.288105,-2.024163 -2.024165,-3.005576 -0.736059,-0.981412 -1.594796,-2.208178 -2.085502,-2.944238 -0.490706,-0.73606 -0.613382,-0.981414 -0.797396,-1.10409 -0.184015,-0.122676 -0.429368,-0.122676 -0.674721,-0.306691 -0.245354,-0.184014 -0.490707,-0.552044 -1.288105,-0.674721 -0.797397,-0.122676 -2.146841,0 -4.171004,0.122677 z"
       id="path3"
       inkscape:path-effect="#path-effect3"
       inkscape:original-d="m 56.30855,18.401487 c -2.698885,0.122676 -5.39777,0.245353 -8.096655,0.36803 -1.472117,1.226765 -2.944238,2.453531 -4.416356,3.680297 -0.981413,0.613383 -1.962827,1.226766 -2.944238,1.840149 -0.858737,0.981412 -1.717471,1.962825 -2.576208,2.944237 -0.613384,0.613383 -1.226767,1.226767 -1.840148,1.840148 -0.36803,0.858737 -0.73606,1.717474 -1.10409,2.576208 -0.981414,1.962827 -1.962825,3.925652 -2.944239,5.888477 -0.73606,3.434945 -1.472118,6.869887 -2.208178,10.304832 0,0.736061 0,1.472118 0,2.208178 -0.122677,0 -0.245353,0 -0.36803,0 -0.122677,0.613384 -0.245353,1.226768 -0.36803,1.840148 -0.36803,0.368031 -0.736058,0.736061 -1.104088,1.104091 -0.122677,0.490707 -0.245353,0.981413 -0.36803,1.472118 -0.36803,0.490706 -0.73606,0.981413 -1.10409,1.47212 -0.245354,0.858737 -0.490706,1.717471 -0.736059,2.576208 -0.36803,0.490707 -0.736059,0.981411 -1.104089,1.472118 -0.122677,0.858737 -0.245353,1.717474 -0.36803,2.576208 -0.368029,0.613384 -0.736059,1.226767 -1.104089,1.840151 0,0.858734 0,1.717471 0,2.576208 -0.490706,1.717471 -0.981412,3.434943 -1.472119,5.152414 0,0.36803 0,0.73606 0,1.10409 -0.122677,0.122677 -0.245353,0.245354 -0.36803,0.36803 -0.122676,0.245354 -0.245353,0.490707 -0.368029,0.736061 0,0.368027 0,0.736057 0,1.104087 -0.245353,0.736061 -0.490707,1.472121 -0.73606,2.208178 -0.490706,0.858737 -0.981413,1.717474 -1.472119,2.576209 -1.104089,2.330854 -2.208178,4.661709 -3.312267,6.992564 0,0.245353 0,0.490707 0,0.73606 -0.245354,0.245354 -0.490707,0.490707 -0.73606,0.73606 0,0.245354 0,0.490707 0,0.736061 -0.122676,0 -0.245353,0 -0.36803,0 0,0.245353 0,0.490704 0,0.736057 -0.122676,0 -0.245353,0 -0.368029,0 0,0.245354 0,0.490707 0,0.73606 -0.245354,0.368031 -0.490707,0.736061 -0.73606,1.104091 0,1.962825 0,3.925649 0,5.888474 0,0.858737 0,1.717474 0,2.576211 0.36803,0.24535 0.73606,0.4907 1.104089,0.73606 0.122677,0.4907 0.245354,0.98141 0.36803,1.47212 0.981413,0.85873 1.962826,1.71747 2.944238,2.5762 0.36803,0.49071 0.73606,0.98142 1.104089,1.47212 0.122677,0 0.245353,0 0.36803,0 0,0.12268 0,0.24536 0,0.36803 0.858736,0.36803 1.717472,0.73606 2.576208,1.10409 0,0.24536 0,0.49071 0,0.73606 0.490707,0.24536 0.981413,0.49071 1.472119,0.73606 0.245353,0.36803 0.490706,0.73606 0.73606,1.10409 1.349442,1.34944 2.698883,2.69888 4.048327,4.04833 0.36803,0.85873 0.736058,1.71747 1.104088,2.57621 0.122677,0 0.245353,0 0.36803,0 0,0.98141 0,1.96282 0,2.94423 0.245353,0.49071 0.490707,0.98142 0.73606,1.47212 0,0.61339 0,1.22677 0,1.84015 0.245354,0.12268 0.490707,0.24535 0.73606,0.36803 0,0.12268 0,0.24535 0,0.36803 1.104088,-0.12268 2.208179,-0.24535 3.312266,-0.36803 0.613384,-0.61338 1.226767,-1.22677 1.840151,-1.84015 1.226764,-0.4907 2.453531,-0.98141 3.680296,-1.47212 2.085501,-0.61338 4.171003,-1.22676 6.256507,-1.84015 0.36803,-0.24535 0.736057,-0.4907 1.104087,-0.73606 0.490707,0 0.981414,0 1.472121,0 0.490704,-0.24535 0.981411,-0.4907 1.472118,-0.73605 1.10409,0 2.208178,0 3.312268,0 0.613384,0.36802 1.226764,0.73605 1.840148,1.10408 0.981414,0.12268 1.962825,0.24536 2.944238,0.36803 0.122677,0.24536 0.245354,0.49071 0.36803,0.73606 0.490707,0.36803 0.981411,0.73606 1.472118,1.10409 0.122677,0.24536 0.245354,0.49071 0.36803,0.73606 0.122677,0 0.245354,0 0.36803,0 0.613384,1.22677 1.226765,2.45353 1.840148,3.6803 0.368031,0.49071 0.736061,0.98141 1.104091,1.47212 0,0.61338 0,1.22676 0,1.84015 0,0.85873 0,1.71747 0,2.57621 -0.858737,1.10409 -1.717474,2.20817 -2.576208,3.31226 -0.245354,0.12268 -0.490707,0.24536 -0.736061,0.36803 -0.613383,0.49071 -1.226767,0.98141 -1.840148,1.47212 -0.981413,0.36803 -1.962827,0.73606 -2.944238,1.10409 -0.73606,0.49071 -1.47212,0.98141 -2.208178,1.47212 -0.73606,0.12268 -1.47212,0.24535 -2.208178,0.36803 -0.490707,0.24535 -0.981414,0.49071 -1.472121,0.73606 -2.576208,0.24535 -5.152416,0.4907 -7.728624,0.73606 -0.858734,0.24535 -1.717471,0.4907 -2.576208,0.73606 -0.613381,0 -1.226765,0 -1.840148,0 -2.208178,1.10409 -4.416356,2.20818 -6.624535,3.31227 -0.73606,0.24535 -1.47212,0.4907 -2.20818,0.73605 -0.245351,0.24536 -0.490704,0.49071 -0.736058,0.73606 -0.981413,0.49071 -1.962826,0.98142 -2.944238,1.47212 -0.36803,0 -0.73606,0 -1.104089,0 0,0.12268 0,0.24536 0,0.36803 -0.245354,0 -0.490707,0 -0.73606,0 -0.490706,0.36803 -0.981412,0.73606 -1.472119,1.10409 -0.981412,0.36803 -1.962825,0.73606 -2.944238,1.10409 0,0.12268 0,0.24535 0,0.36803 -0.490706,0.12268 -0.981412,0.24535 -1.472119,0.36803 -0.736059,0.61338 -1.472119,1.22677 -2.208178,1.84015 0,0.24535 0,0.49071 0,0.73606 -0.36803,0.36803 -0.73606,0.73606 -1.104089,1.10409 -0.73606,1.22676 -1.472119,2.45353 -2.208179,3.6803 0,0.36803 0,0.73606 0,1.10409 -0.122676,0 -0.245353,0 -0.36803,0 -0.122676,0.24535 -0.245353,0.4907 -0.368029,0.73606 0,0.73605 0,1.47211 0,2.20817 0.245353,0.49071 0.490706,0.98141 0.736059,1.47212 0.245353,0.12268 0.490707,0.24535 0.73606,0.36803 0,0.24536 0,0.49071 0,0.73606 0.490706,0.24536 0.981412,0.49071 1.472119,0.73606 0.122676,0.24535 0.245353,0.49071 0.368029,0.73606 2.698885,1.34944 5.39777,2.69888 8.096655,4.04833 2.208178,0.12268 4.416356,0.24535 6.624534,0.36803 1.10409,0 2.208178,0 3.312268,0 0.613384,-0.24535 1.226767,-0.49071 1.840148,-0.73606 1.840151,-0.12268 3.680299,-0.24536 5.520447,-0.36803 2.698885,0 5.39777,0 8.096654,0 3.066916,0.85874 6.133831,1.71747 9.200743,2.57621 1.594797,-0.24536 3.189592,-0.49071 4.784386,-0.73606 1.472121,0 2.944239,0 4.416359,0 0.245353,-0.24536 0.490704,-0.49071 0.736058,-0.73606 2.453531,-0.12268 4.907063,-0.24535 7.360594,-0.36803 0,-0.12268 0,-0.24535 0,-0.36803 0.858737,-0.24536 1.717474,-0.49071 2.576208,-0.73606 0.73606,-0.49071 1.472121,-0.98142 2.208181,-1.47212 0.613381,-0.12268 1.226764,-0.24535 1.840148,-0.36803 0.122677,-0.12268 0.245353,-0.24535 0.36803,-0.36803 0.245353,0 0.490704,0 0.736058,0 0,-0.12268 0,-0.24535 0,-0.36803 0.245353,0 0.490706,0 0.73606,0 0,-0.12268 0,-0.24535 0,-0.36803 0.245353,0 0.490707,0 0.73606,0 0.858734,-0.36803 1.717471,-0.73606 2.576208,-1.10409 0,-0.12267 0,-0.24535 0,-0.36803 0.36803,0 0.736058,0 1.104088,0 0,-0.12267 0,-0.24535 0,-0.36803 0.613384,-0.24535 1.226767,-0.49071 1.840151,-0.73606 0.858734,-0.61338 1.717471,-1.22676 2.576208,-1.84015 0.736057,-0.36803 1.472118,-0.73606 2.208178,-1.10409 0.122677,-0.24535 0.245353,-0.4907 0.36803,-0.73605 0.245351,0 0.490704,0 0.736058,0 0.122676,-0.12268 0.245353,-0.24536 0.36803,-0.36803 0.490707,-0.12268 0.981413,-0.24536 1.47212,-0.36803 0.858735,-0.49071 1.717471,-0.98142 2.576208,-1.47212 0.245351,0 0.490701,0 0.736061,0 0.73606,-0.61339 1.47212,-1.22677 2.20818,-1.84015 1.84015,-2.45353 3.68029,-4.90707 5.52044,-7.3606 0.12268,-0.12267 0.24536,-0.24535 0.36803,-0.36803 0.24536,-0.12267 0.49071,-0.24535 0.73606,-0.36803 0.24536,-0.73606 0.49071,-1.47212 0.73606,-2.20818 0.24535,-0.36803 0.49071,-0.73605 0.73606,-1.10408 0,-0.49071 0,-0.98142 0,-1.47212 0.12268,0 0.24535,0 0.36803,0 0.12268,-2.94424 0.24535,-5.88848 0.36803,-8.83272 0.49071,-1.22676 0.98141,-2.45353 1.47212,-3.68029 0.24535,-0.36803 0.4907,-0.73606 0.73606,-1.10409 0,-0.36803 0,-0.73606 0,-1.10409 0.61338,-1.71747 1.22677,-3.43495 1.84015,-5.15242 0,-1.59479 0,-3.18959 0,-4.78439 -0.49071,-4.53903 -0.98141,-9.07806 -1.47212,-13.61709 -1.71747,-1.96283 -3.43495,-3.92566 -5.15242,-5.888481 -0.36803,-0.73606 -0.73606,-1.47212 -1.10409,-2.208178 -0.61338,-0.858737 -1.22676,-1.717474 -1.84015,-2.576208 -0.36803,-0.245353 -0.73606,-0.490707 -1.10408,-0.73606 -0.24536,-0.36803 -0.49071,-0.736061 -0.73606,-1.104091 -0.49071,-0.24535 -0.98142,-0.490704 -1.47212,-0.736057 -0.61339,-0.245354 -1.22677,-0.490707 -1.84015,-0.736061 -1.717474,-0.981413 -3.434948,-1.962824 -5.152419,-2.944238 0,-0.122677 0,-0.245353 0,-0.36803 -0.73606,-0.122677 -1.472118,-0.245353 -2.208178,-0.36803 0,-0.122674 0,-0.245351 0,-0.368028 -0.858737,-0.36803 -1.717472,-0.73606 -2.576209,-1.10409 -0.36803,-0.36803 -0.73606,-0.73606 -1.10409,-1.104088 -0.368027,-0.122676 -0.736057,-0.245353 -1.104088,-0.36803 -0.613383,-0.490707 -1.226767,-0.981413 -1.840148,-1.47212 -0.245353,0 -0.490706,0 -0.73606,0 -0.490707,-0.36803 -0.981413,-0.736058 -1.472118,-1.104088 -1.10409,-0.490707 -2.20818,-0.981414 -3.312268,-1.47212 -0.858737,-0.613381 -1.717471,-1.226765 -2.576208,-1.840148 -0.122677,-0.245354 -0.245354,-0.490707 -0.36803,-0.736061 -0.490707,-0.245353 -0.981414,-0.490706 -1.472118,-0.736057 -0.36803,-0.36803 -0.73606,-0.73606 -1.104091,-1.104091 -0.36803,-0.122676 -0.73606,-0.245353 -1.10409,-0.36803 -0.368027,-0.490707 -0.736058,-0.981411 -1.104088,-1.472118 -0.245353,-0.122676 -0.490706,-0.245353 -0.73606,-0.36803 0,-0.245353 0,-0.490706 0,-0.73606 -0.36803,-0.245353 -0.73606,-0.490707 -1.104088,-0.73606 -0.613383,-1.104088 -1.226767,-2.208178 -1.84015,-3.312266 0,-0.36803 0,-0.73606 0,-1.10409 -0.36803,-0.981411 -0.736058,-1.962825 -1.104088,-2.944239 0,-0.490704 0,-0.981411 0,-1.472117 -0.36803,-0.490707 -0.73606,-0.981414 -1.10409,-1.472118 0,-0.36803 0,-0.736061 0,-1.104091 -0.245354,-0.490706 -0.490707,-0.981413 -0.736058,-1.472117 0,-1.226768 0,-2.453532 0,-3.680299 0,-1.472118 0,-2.944238 0,-4.416356 0.245351,-0.245354 0.490704,-0.490707 0.736058,-0.73606 0.122676,-0.490707 0.245353,-0.981414 0.36803,-1.472118 0.122677,-0.858737 0.245353,-1.717474 0.36803,-2.576208 0,-1.472121 0,-2.944239 0,-4.416359 0.122677,-1.472118 0.245353,-2.944236 0.36803,-4.416356 0,-2.085502 0,-4.171003 0,-6.256505 -0.73606,-1.84015 -1.47212,-3.680298 -2.208178,-5.520447 -0.613384,-0.736059 -1.226767,-1.472118 -1.840151,-2.208178 -0.858734,-1.226766 -1.717471,-2.453531 -2.576208,-3.680297 -0.122677,-0.245354 -0.245353,-0.490707 -0.368027,-0.73606 -0.245354,0 -0.490707,0 -0.736061,0 -0.245353,-0.368029 -0.490706,-0.736059 -0.73606,-1.104089 -1.349441,0.122677 -2.698885,0.245353 -4.048326,0.36803 z"
       transform="translate(32.004646,71.0158)" />
  </g>
  <g
     inkscape:groupmode="layer"
     id="layer4"
     inkscape:label="Layer 3"
     transform="translate(-32.004646,-71.015799)"
     style="display:inline">
    <circle
       style="fill:#fffa00;fill-opacity:1;stroke:#000000;stroke-width:0.750001;stroke-dasharray:none;stroke-opacity:1"
       id="path2"
       cx="113.35316"
       cy="140.58734"
       r="18.401487" />
  </g>
</svg>
