<?xml version="1.0" encoding="UTF-8" standalone="no"?>
<!-- Created with Inkscape (http://www.inkscape.org/) -->

<svg
   width="187.71355mm"
   height="159.0087mm"
   viewBox="0 0 709.46853 600.97777"
   version="1.1"
   id="svg1"
   inkscape:version="1.4.2 (f4327f4, 2025-05-13)"
   sodipodi:docname="p4.svg"
   xmlns:inkscape="http://www.inkscape.org/namespaces/inkscape"
   xmlns:sodipodi="http://sodipodi.sourceforge.net/DTD/sodipodi-0.dtd"
   xmlns="http://www.w3.org/2000/svg"
   xmlns:svg="http://www.w3.org/2000/svg">
  <sodipodi:namedview
     id="namedview1"
     pagecolor="#ffffff"
     bordercolor="#000000"
     borderopacity="0.25"
     inkscape:showpageshadow="2"
     inkscape:pageopacity="0.0"
     inkscape:pagecheckerboard="0"
     inkscape:deskcolor="#d1d1d1"
     inkscape:document-units="mm"
     inkscape:zoom="0.71895503"
     inkscape:cx="398.49502"
     inkscape:cy="404.05865"
     inkscape:window-width="1920"
     inkscape:window-height="1009"
     inkscape:window-x="1072"
     inkscape:window-y="446"
     inkscape:window-maximized="1"
     inkscape:current-layer="svg1" />
  <defs
     id="defs1">
    <inkscape:path-effect
       effect="bspline"
       id="path-effect1"
       is_visible="true"
       lpeversion="1.3"
       weight="33.333333"
       steps="2"
       helper_size="0"
       apply_no_weight="true"
       apply_with_weight="true"
       only_selected="false"
       uniform="false" />
  </defs>
  <g
     inkscape:label="Layer 1"
     inkscape:groupmode="layer"
     id="layer1"
     transform="translate(-222.49238,-105.65615)">
    <rect
       style="fill:#f5d142;fill-opacity:1;stroke:#000000;stroke-width:5.66929;stroke-dasharray:none"
       id="rect1"
       width="703.79926"
       height="595.30847"
       x="225.32703"
       y="108.49079" />
  </g>
  <g
     inkscape:groupmode="layer"
     id="layer6"
     inkscape:label="Layer 3"
     transform="translate(-222.49238,-105.65615)">
    <circle
       style="fill:#fffa00;fill-opacity:1;stroke:#000000;stroke-width:2.83465;stroke-dasharray:none"
       id="path2"
       cx="686.4129"
       cy="333.12238"
       r="88.322632" />
  </g>
  <g
     inkscape:groupmode="layer"
     id="layer5"
     inkscape:label="Layer 2"
     transform="translate(-222.49238,-105.65615)">
    <path
       style="fill:#b5e637;fill-opacity:1;stroke:#000000;stroke-width:2.83465;stroke-dasharray:none"
       d="m 545.00397,240.16338 c -5.33182,-10.19998 -19.24089,-23.64542 -27.35452,-30.59996 -8.11363,-6.95455 -10.43181,-7.41818 -16.45907,-9.27273 -6.02727,-1.85454 -15.76362,-5.09999 -28.97725,-6.02726 -13.21362,-0.92727 -29.90451,0.46363 -39.17722,1.15909 -9.27272,0.69545 -11.12727,0.69545 -12.05454,0.92727 -0.92727,0.23181 -0.92727,0.69545 -1.62273,0.92727 -0.69545,0.23182 -2.08636,0.23182 -4.40453,1.15909 -2.31818,0.92727 -5.56364,2.78182 -7.65,3.70909 -2.08636,0.92727 -3.01363,0.92727 -4.40454,1.85454 -1.39091,0.92727 -3.24545,2.78181 -4.86817,3.9409 -1.62273,1.15909 -3.01364,1.62273 -3.94091,2.31818 -0.92727,0.69546 -1.3909,1.62273 -2.78181,2.31819 -1.39091,0.69546 -3.70909,1.15909 -5.79545,2.08636 -2.08636,0.92728 -3.94091,2.31818 -6.02727,3.47727 -2.08636,1.15909 -4.40454,2.08637 -6.4909,3.24545 -2.08636,1.15909 -3.94091,2.55 -6.4909,3.94091 -2.55,1.39091 -5.79545,2.78181 -9.50453,5.56363 -3.70909,2.78181 -7.88182,6.95454 -12.28636,10.66362 -4.40454,3.70909 -9.0409,6.95454 -11.5909,9.0409 -2.54999,2.08636 -3.01363,3.01364 -4.17272,4.17273 -1.15908,1.15909 -3.01363,2.54999 -6.02726,5.56363 -3.01364,3.01363 -7.18636,7.64999 -9.73636,11.12726 -2.54999,3.47727 -3.47727,5.79544 -4.63636,7.8818 -1.15909,2.08636 -2.54999,3.94091 -3.70908,6.49091 -1.15909,2.55 -2.08636,5.79545 -3.24545,8.11363 -1.15909,2.31817 -2.55,3.70908 -5.1,7.64998 -2.54999,3.94091 -6.25908,10.43181 -9.73635,19.2409 -3.47727,8.80908 -6.72272,19.93634 -8.80908,27.12269 -2.08636,7.18636 -3.01364,10.43181 -3.47727,15.06817 -0.46364,4.63636 -0.46364,10.66362 -0.46364,21.09543 0,10.43181 0,25.26815 0.92727,33.14996 0.92728,7.88182 2.78182,8.80909 3.70909,9.50454 0.92727,0.69545 0.92727,1.15909 3.70908,3.70908 2.78182,2.55 8.34545,7.18636 15.76362,9.50454 7.41818,2.31818 16.6909,2.31818 22.02271,1.85455 5.33181,-0.46364 6.72272,-1.39091 8.80908,-2.08636 2.08636,-0.69546 4.86818,-1.15909 6.25909,-1.62273 1.3909,-0.46364 1.3909,-0.92727 2.08635,-1.15909 0.69546,-0.23182 2.08637,-0.23182 3.01364,-0.69545 0.92727,-0.46364 1.39091,-1.39091 3.24545,-2.08636 1.85455,-0.69546 5.1,-1.15909 6.72273,-1.62273 1.62272,-0.46364 1.62272,-0.92727 6.02726,-1.15909 4.40454,-0.23182 13.21362,-0.23182 20.63179,-0.23182 7.41818,0 13.44544,0 16.69089,0.69546 3.24546,0.69545 3.7091,2.08636 4.63637,3.70908 0.92727,1.62273 2.31817,3.47727 3.01363,7.88181 0.69545,4.40454 0.69545,11.35908 0.92727,14.83635 0.23182,3.47727 0.69545,3.47727 0.92727,3.70908 0.23182,0.23182 0.23182,0.69546 4.86818,2.08637 4.63636,1.3909 13.90907,3.70908 18.77725,5.56363 4.86818,1.85454 5.33181,3.24545 6.02727,4.17272 0.69545,0.92727 1.62272,1.39091 2.08636,2.31818 0.46363,0.92727 0.46363,2.31818 0.69545,3.47727 0.23182,1.15909 0.69545,2.08636 0.92727,7.64999 0.23182,5.56363 0.23182,15.76362 -0.23181,21.79089 -0.46364,6.02726 -1.39091,7.8818 -2.08636,12.51816 -0.69546,4.63636 -1.15909,12.05454 -1.85455,19.70453 -0.69545,7.64999 -1.62273,15.5318 -1.85454,19.47271 -0.23182,3.9409 0.23181,3.9409 0.69545,4.40454 0.46364,0.46363 0.92727,1.3909 2.78182,2.54999 1.85454,1.15909 5.09999,2.55 7.64998,3.94091 2.55,1.3909 4.40455,2.78181 7.88182,4.40454 3.47727,1.62273 8.57726,3.47727 12.74998,5.33181 4.17273,1.85455 7.41818,3.70909 9.50454,4.63636 2.08636,0.92727 3.01363,0.92727 3.47726,1.15908 0.46364,0.23182 0.46364,0.69546 1.15909,0.92728 0.69546,0.23182 2.08637,0.23182 4.17273,0.92727 2.08636,0.69545 4.86818,2.08636 6.25908,3.01364 1.39091,0.92727 1.39091,1.3909 2.08637,1.62272 0.69545,0.23182 2.08636,0.23182 3.47727,0.69545 1.3909,0.46364 2.78181,1.39091 4.40454,2.08636 1.62272,0.69546 3.47726,1.15909 5.09999,1.85454 1.62272,0.69546 3.01363,1.62273 3.70909,1.85455 0.69545,0.23182 0.69545,-0.23182 1.62272,-0.69545 0.92727,-0.46364 2.78182,-0.92727 4.63636,-2.08636 1.85454,-1.15909 3.70909,-3.01364 5.33182,-4.17273 1.62272,-1.15909 3.01363,-1.62273 3.70908,-2.08636 0.69545,-0.46363 0.69545,-0.92727 1.15908,-1.39091 0.46364,-0.46363 1.39092,-0.92727 1.85456,-1.3909 0.46363,-0.46364 0.46363,-0.92728 1.62272,-1.85455 1.15909,-0.92727 3.47727,-2.31818 4.63636,-3.24545 1.15909,-0.92727 1.15909,-1.39091 1.85454,-1.85454 0.69545,-0.46363 2.08636,-0.92727 3.24545,-1.85455 1.15909,-0.92727 2.08636,-2.31817 4.40454,-3.24544 2.31818,-0.92728 6.02727,-1.39091 8.57726,-1.85455 2.55,-0.46364 3.94091,-0.92727 4.86818,-0.69545 0.92728,0.23182 1.39091,1.15909 2.08636,1.62273 0.69546,0.46363 1.62273,0.46363 2.31818,0.92727 0.69546,0.46363 1.15909,1.3909 2.08637,2.31817 0.92727,0.92728 2.31817,1.85455 3.24545,3.01364 0.92727,1.15909 1.3909,2.54999 4.17272,3.70908 2.78181,1.15909 7.88181,2.08637 10.89544,3.24545 3.01363,1.15909 3.9409,2.55 6.02727,4.86818 2.08636,2.31818 5.33181,5.56363 7.18635,7.64999 1.85455,2.08636 2.31818,3.01364 3.01364,4.17273 0.69545,1.15909 1.62272,2.54999 2.54999,3.47726 0.92727,0.92728 1.85455,1.39091 2.31818,2.08637 0.46364,0.69545 0.46364,1.62272 0.69545,2.08636 0.23182,0.46363 0.69546,0.46363 1.15909,1.39091 0.46364,0.92727 0.92727,2.78181 1.62273,3.9409 0.69545,1.15909 1.62273,1.62273 2.55,3.47727 0.92727,1.85454 1.85454,5.09999 7.8818,6.4909 6.02727,1.39091 17.15453,0.92727 22.71817,0.23182 5.56363,-0.69546 5.56363,-1.62273 6.02727,-2.31818 0.46364,-0.69546 1.39091,-1.15909 1.85454,-1.85455 0.46364,-0.69545 0.46364,-1.62272 3.94091,-2.31817 3.47727,-0.69546 10.43181,-1.15909 19.70452,0.23181 9.27272,1.39091 20.86362,4.63636 28.04998,6.72272 7.18635,2.08637 9.96816,3.01364 11.35907,3.70909 1.39091,0.69546 1.39091,1.15909 1.85454,1.39091 0.46364,0.23182 1.39091,0.23182 2.31818,0.92727 0.92727,0.69546 1.85454,2.08636 3.94091,3.01364 2.08636,0.92728 5.33181,1.39091 9.04089,2.08637 3.70909,0.69545 7.88182,1.62272 9.96818,1.85454 2.08636,0.23182 2.08636,-0.23182 3.70908,-1.85455 1.62273,-1.62272 4.86818,-4.40455 9.96818,-7.65 5.09999,-3.24545 12.05453,-6.95453 16.9227,-9.96817 4.86818,-3.01363 7.65,-5.33181 9.27272,-6.4909 1.62273,-1.15909 2.08636,-1.15909 2.31818,-1.62272 0.23182,-0.46364 0.23182,-1.39091 0.69546,-2.08636 0.46363,-0.69546 1.3909,-1.15909 2.78181,-2.78182 1.39091,-1.62273 3.24545,-4.40454 4.40454,-5.79545 1.15909,-1.39091 1.62273,-1.39091 2.08636,-2.31818 0.46364,-0.92727 0.92727,-2.78181 1.62272,-3.9409 0.69546,-1.15909 1.62273,-1.62273 2.78182,-3.01363 1.15909,-1.39091 2.55,-3.70909 3.94091,-5.33182 1.39091,-1.62273 2.78181,-2.55 5.56363,-5.09999 2.78181,-2.55 6.95454,-6.72272 12.51817,-9.0409 5.56363,-2.31818 12.51817,-2.78182 16.45908,-3.01363 3.9409,-0.23182 4.86817,-0.23182 5.33181,-0.69546 0.46363,-0.46364 0.46363,-1.39091 1.85454,-4.17272 1.3909,-2.78182 4.17272,-7.41818 7.18635,-12.28636 3.01363,-4.86817 6.25908,-9.96816 8.11363,-13.44543 1.85454,-3.47727 2.31818,-5.33182 3.01363,-6.49091 0.69546,-1.15909 1.62273,-1.62272 2.31818,-3.24545 0.69546,-1.62272 1.15909,-4.40454 2.08637,-6.72272 0.92727,-2.31817 2.31817,-4.17272 3.01363,-5.79544 0.69545,-1.62273 0.69545,-3.01364 1.62272,-7.18636 0.92727,-4.17272 2.78182,-11.12726 3.70909,-16.45908 0.92727,-5.33181 0.92727,-9.04089 1.39091,-12.05452 0.46363,-3.01364 1.39091,-5.33182 1.85454,-8.11363 0.46364,-2.78182 0.46364,-6.02727 0.69546,-7.88181 0.23181,-1.85455 0.69545,-2.31818 0.92726,-3.47727 0.23182,-1.15909 0.23182,-3.01363 0.92727,-6.4909 0.69546,-3.47727 2.08637,-8.57727 2.78183,-12.05454 0.69545,-3.47727 0.69545,-5.33181 1.15909,-8.11362 0.46363,-2.78182 1.3909,-6.49091 1.85454,-10.66363 0.46363,-4.17272 0.46363,-8.80908 -2.55001,-9.27272 -3.01363,-0.46363 -9.04089,3.24545 -12.51816,5.1 -3.47727,1.85454 -4.40454,1.85454 -7.88181,3.47727 -3.47727,1.62272 -9.50454,4.86818 -16.92271,7.41818 -7.41817,2.54999 -16.22725,4.40454 -23.18179,5.33181 -6.95454,0.92727 -12.05453,0.92727 -22.71815,1.15909 -10.66363,0.23181 -26.89089,0.69545 -43.11815,0.92726 -16.22725,0.23182 -32.4545,0.23182 -41.03176,-3.47727 -8.57727,-3.70908 -9.50454,-11.12725 -10.19999,-14.83634 -0.69546,-3.70909 -1.1591,-3.70909 -1.39091,-4.63636 -0.23182,-0.92727 -0.23182,-2.78182 -0.69546,-5.33181 -0.46363,-2.55 -1.39091,-5.79545 -1.85454,-10.19999 -0.46364,-4.40454 -0.46364,-9.96817 -1.39091,-15.06816 -0.92727,-5.1 -2.78182,-9.73636 -4.17272,-14.1409 -1.39091,-4.40454 -2.31818,-8.57726 -3.01363,-10.66363 -0.69546,-2.08636 -1.15909,-2.08636 -2.08636,-5.79545 -0.92728,-3.70908 -2.31818,-11.12725 -7.41818,-14.83634 -5.09999,-3.70909 -13.90908,-3.70909 -19.24089,-3.47727 -5.33181,0.23182 -7.18635,0.69545 -12.74998,1.15909 -5.56363,0.46364 -14.83636,0.92727 -23.41362,1.15909 -8.57727,0.23182 -16.45908,0.23182 -24.5727,0.46364 -8.11363,0.23181 -16.45908,0.69545 -22.02271,-0.92728 -5.56362,-1.62272 -8.34544,-5.33181 -10.4318,-8.11363 -2.08637,-2.78181 -3.47727,-4.63635 -4.40454,-5.56363 -0.92728,-0.92727 -1.39091,-0.92727 -2.08637,-2.31817 -0.69545,-1.39091 -1.62273,-4.17273 -2.55,-5.79545 -0.92727,-1.62273 -1.85454,-2.08636 -3.01363,-4.86818 -1.15909,-2.78181 -2.54999,-7.88181 -3.24545,-11.82272 -0.69545,-3.9409 -0.69545,-6.72271 -1.3909,-9.73635 -0.69546,-3.01363 -2.08637,-6.25908 -2.78182,-10.89544 -0.69546,-4.63636 -0.69546,-10.66362 0.92727,-17.15453 1.62273,-6.4909 4.86818,-13.44544 -0.46363,-23.64543 z"
       id="path1"
       inkscape:path-effect="#path-effect1"
       inkscape:original-d="M 553.58123,243.40884 C 539.67215,229.9634 525.76308,216.51796 511.854,203.07251 c -2.31818,-0.46364 -4.63636,-0.92727 -6.95454,-1.39091 -9.73635,-3.24545 -19.4727,-6.4909 -29.20906,-9.73635 -16.69089,1.3909 -33.38178,2.78181 -50.07267,4.17272 -1.85454,0 -3.70909,0 -5.56363,0 0,0.46363 0,0.92727 0,1.39091 -1.39091,0 -2.78182,0 -4.17272,0 -3.24545,1.85454 -6.49091,3.70908 -9.73636,5.56363 -0.92727,0 -1.85454,0 -2.78181,0 -1.85455,1.85454 -3.70909,3.70908 -5.56363,5.56363 -1.39091,0.46363 -2.78182,0.92727 -4.17272,1.3909 -0.46364,0.92728 -0.92728,1.85455 -1.39091,2.78183 -2.31818,0.46364 -4.63636,0.92727 -6.95454,1.39091 -1.85454,1.39091 -3.70909,2.78181 -5.56363,4.17272 -2.31818,0.92727 -4.63636,1.85454 -6.95454,2.78182 -1.85454,1.3909 -3.70909,2.78181 -5.56363,4.17272 -3.24545,1.39091 -6.4909,2.78181 -9.73635,4.17272 -4.17272,4.17272 -8.34545,8.34545 -12.51817,12.51817 -4.63636,3.24545 -9.27272,6.4909 -13.90908,9.73635 -0.46363,0.92727 -0.92727,1.85455 -1.3909,2.78182 -1.85455,1.3909 -3.70909,2.78181 -5.56363,4.17272 -4.17273,4.63636 -8.34545,9.27272 -12.51817,13.90908 -0.92727,2.31818 -1.85455,4.63635 -2.78182,6.95453 -1.3909,1.85455 -2.78181,3.70909 -4.17272,5.56363 -0.92727,3.24546 -1.85454,6.49091 -2.78181,9.73636 -1.39091,1.3909 -2.78182,2.78181 -4.17273,4.17272 -3.70908,6.4909 -7.41817,12.9818 -11.12726,19.47271 -3.24545,11.12726 -6.4909,22.25452 -9.73635,33.38178 -0.92727,3.24545 -1.85454,6.4909 -2.78182,9.73635 0,6.02727 0,12.05453 0,18.0818 0,14.83635 0,29.67269 0,44.50904 1.85455,0.92727 3.70909,1.85455 5.56363,2.78182 0,0.46363 0,0.92727 0,1.3909 5.56363,4.63636 11.12726,9.27272 16.69089,13.90908 9.27272,0 18.54544,0 27.81816,0 1.3909,-0.92727 2.78181,-1.85454 4.17272,-2.78181 2.78181,-0.46364 5.56363,-0.92728 8.34544,-1.39091 0,-0.46364 0,-0.92727 0,-1.39091 1.39091,0 2.78182,0 4.17273,0 0.46363,-0.92727 0.92727,-1.85454 1.3909,-2.78181 3.24546,-0.46364 6.49091,-0.92728 9.73636,-1.39091 0,-0.46364 0,-0.92727 0,-1.39091 8.80908,0 17.61816,0 26.42724,0 6.02727,0 12.05453,0 18.0818,0 0.46364,1.39091 0.92727,2.78182 1.39091,4.17272 1.39091,1.85455 2.78181,3.70909 4.17272,5.56363 0,6.95454 0,13.90908 0,20.86362 0.46364,0 0.92727,0 1.39091,0 0,0.46363 0,0.92727 0,1.3909 9.27272,2.31818 18.54543,4.63636 27.81815,6.95454 0.46364,1.39091 0.92727,2.78182 1.39091,4.17273 0.92727,0.46363 1.85454,0.92727 2.78181,1.3909 0,1.39091 0,2.78182 0,4.17273 0.46364,0.92727 0.92727,1.85454 1.39091,2.78181 0,10.19999 0,20.39998 0,30.59997 -0.92727,1.85454 -1.85454,3.70908 -2.78181,5.56363 -0.46364,7.41817 -0.92728,14.83635 -1.39091,22.25452 -0.92727,7.88181 -1.85455,15.76362 -2.78182,23.64543 0.46364,0 0.92727,0 1.39091,0 0.46364,0.92727 0.92727,1.85454 1.39091,2.78181 3.24545,1.39091 6.4909,2.78182 9.73635,4.17273 1.85454,1.3909 3.70909,2.78181 5.56363,4.17272 5.1,1.85454 10.19999,3.70909 15.29998,5.56363 3.24546,1.85454 6.49091,3.70909 9.73636,5.56363 0.92727,0 1.85454,0 2.78181,0 0,0.46363 0,0.92727 0,1.39091 1.39091,0 2.78182,0 4.17273,0 2.78181,1.3909 5.56363,2.78181 8.34544,4.17272 0,0.46364 0,0.92727 0,1.39091 1.39091,0 2.78182,0 4.17272,0 1.39091,0.92727 2.78182,1.85454 4.17273,2.78181 1.85454,0.46364 3.70908,0.92727 5.56363,1.39091 1.3909,0.92727 2.78181,1.85454 4.17272,2.78181 0,-0.46363 0,-0.92727 0,-1.3909 1.85454,-0.46364 3.70909,-0.92727 5.56363,-1.39091 1.85454,-1.85454 3.70909,-3.70909 5.56363,-5.56363 1.39091,-0.46364 2.78182,-0.92727 4.17272,-1.39091 0,-0.46363 0,-0.92727 0,-1.39091 0.92727,-0.46363 1.85455,-0.92727 2.78182,-1.3909 0,-0.46364 0,-0.92728 0,-1.39091 2.31818,-1.39091 4.63636,-2.78182 6.95454,-4.17272 0,-0.46364 0,-0.92728 0,-1.39091 1.3909,-0.46364 2.78181,-0.92727 4.17272,-1.39091 0.92727,-1.39091 1.85454,-2.78181 2.78181,-4.17272 3.70909,-0.46364 7.41818,-0.92727 11.12726,-1.39091 1.39091,-0.46363 2.78182,-0.92727 4.17273,-1.39091 0.46363,0.92728 0.92727,1.85455 1.3909,2.78182 0.92728,0 1.85455,0 2.78182,0 0.46364,0.92727 0.92727,1.85454 1.39091,2.78181 1.39091,0.92728 2.78181,1.85455 4.17272,2.78182 0.46364,1.39091 0.92727,2.78181 1.39091,4.17272 5.09999,0.92727 10.19999,1.85454 15.29998,2.78182 0.92727,1.3909 1.85454,2.78181 2.78182,4.17272 3.24545,3.24545 6.4909,6.4909 9.73635,9.73635 0.46364,0.92727 0.92727,1.85455 1.39091,2.78182 0.92727,1.39091 1.85454,2.78181 2.78181,4.17272 0.92727,0.46364 1.85455,0.92727 2.78182,1.39091 0,0.92727 0,1.85454 0,2.78181 0.46363,0 0.92727,0 1.3909,0 0.46364,1.85455 0.92728,3.70909 1.39091,5.56363 0.92727,0.46364 1.85455,0.92728 2.78182,1.39091 0.92727,3.24545 1.85454,6.4909 2.78181,9.73635 11.12726,-0.46363 22.25452,-0.92727 33.38179,-1.3909 0,-0.92728 0,-1.85455 0,-2.78182 0.92728,-0.46363 1.85455,-0.92727 2.78182,-1.39091 0,-0.92727 0,-1.85454 0,-2.78181 6.95454,-0.46364 13.90908,-0.92727 20.86361,-1.39091 11.5909,3.24545 23.1818,6.4909 34.77269,9.73635 2.78182,0.92728 5.56363,1.85455 8.34545,2.78182 0,0.46364 0,0.92727 0,1.39091 0.92727,0 1.85454,0 2.78181,0 0.92728,1.3909 1.85455,2.78181 2.78182,4.17273 3.24545,0.46364 6.4909,0.92727 9.73635,1.39091 4.17272,0.92727 8.34545,1.85454 12.51817,2.78181 0,-0.46363 0,-0.92727 0,-1.39091 3.24545,-2.78181 6.4909,-5.56364 9.73635,-8.34545 6.95454,-3.70909 13.90908,-7.41817 20.86362,-11.12726 2.78181,-2.31818 5.56363,-4.63636 8.34544,-6.95454 0.46364,0 0.92727,0 1.39091,0 0,-0.92727 0,-1.85454 0,-2.78181 0.92727,-0.46364 1.85454,-0.92728 2.78182,-1.39091 1.85454,-2.78182 3.70908,-5.56363 5.56363,-8.34545 0.46363,0 0.92727,0 1.3909,0 0.46364,-1.85454 0.92727,-3.70908 1.39091,-5.56363 0.92727,-0.46363 1.85454,-0.92727 2.78182,-1.39091 1.3909,-2.31817 2.78181,-4.63635 4.17272,-6.95453 1.39091,-0.92728 2.78181,-1.85455 4.17272,-2.78182 4.17272,-4.17272 8.34545,-8.34544 12.51817,-12.51817 6.95454,-0.46363 13.90908,-0.92727 20.86361,-1.3909 0.92728,0 1.85455,0 2.78182,0 0,-0.92728 0,-1.85455 0,-2.78182 2.78181,-4.63636 5.56363,-9.27272 8.34544,-13.90908 3.24545,-5.09999 6.49091,-10.19998 9.73636,-15.29998 0.46363,-1.85454 0.92727,-3.70909 1.3909,-5.56363 0.92728,-0.46363 1.85455,-0.92727 2.78182,-1.39091 0.46364,-2.78181 0.92727,-5.56363 1.39091,-8.34544 1.3909,-1.85455 2.78181,-3.70909 4.17272,-5.56363 0,-1.39091 0,-2.78182 0,-4.17273 1.85454,-6.95453 3.70909,-13.90907 5.56363,-20.86361 0,-3.70909 0,-7.41817 0,-11.12726 0.92727,-2.31818 1.85454,-4.63636 2.78182,-6.95454 0,-3.24545 0,-6.4909 0,-9.73635 0.46363,-0.46364 0.92727,-0.92727 1.3909,-1.39091 0,-1.85454 0,-3.70908 0,-5.56363 1.39091,-5.09999 2.78182,-10.19999 4.17273,-15.29998 0,-1.85455 0,-3.70909 0,-5.56363 0.92727,-3.70909 1.85454,-7.41818 2.78181,-11.12726 0,-4.63636 0,-9.27272 0,-13.90908 -6.02727,3.70909 -12.05453,7.41818 -18.0818,11.12726 -0.92727,0 -1.85454,0 -2.78181,0 -6.02727,3.24545 -12.05454,6.4909 -18.0818,9.73636 -8.80908,1.85454 -17.61816,3.70908 -26.42725,5.56363 -5.09999,0 -10.19998,0 -15.29998,0 -16.22725,0.46363 -32.45451,0.92727 -48.68176,1.3909 -16.22726,0 -32.45451,0 -48.68177,0 -0.92727,-7.41817 -1.85454,-14.83634 -2.78181,-22.25452 -0.46364,0 -0.92728,0 -1.39091,0 0,-1.85454 0,-3.70909 0,-5.56363 -0.92727,-3.24545 -1.85455,-6.4909 -2.78182,-9.73635 0,-5.56363 0,-11.12726 0,-16.69089 -1.85454,-4.63636 -3.70908,-9.27272 -5.56363,-13.90908 -0.92727,-4.17272 -1.85454,-8.34544 -2.78181,-12.51817 -0.46364,0 -0.92727,0 -1.39091,0 -1.39091,-7.41817 -2.78182,-14.83634 -4.17272,-22.25452 -8.80908,0 -17.61817,0 -26.42725,0 -1.85454,0.46364 -3.70908,0.92727 -5.56363,1.39091 -9.27271,0.46364 -18.54544,0.92727 -27.81816,1.39091 -7.88181,0 -15.76362,0 -23.64543,0 -8.34544,0.46363 -16.69089,0.92727 -25.03633,1.3909 -2.78182,-3.70908 -5.56363,-7.41817 -8.34545,-11.12726 -1.39091,-1.85454 -2.78181,-3.70908 -4.17272,-5.56363 -0.46364,0 -0.92727,0 -1.39091,0 -0.92727,-2.78181 -1.85454,-5.56363 -2.78182,-8.34544 -0.92727,-0.46364 -1.85454,-0.92727 -2.78181,-1.39091 -1.39091,-5.09999 -2.78182,-10.19999 -4.17272,-15.29998 0,-2.78182 0,-5.56363 0,-8.34545 -1.39091,-3.24545 -2.78182,-6.4909 -4.17273,-9.73635 0,-6.02727 0,-12.05453 0,-18.0818 3.24546,-6.95454 6.49091,-13.90908 9.73636,-20.86361 z" />
  </g>
</svg>
